<svg width="230" height="126" viewBox="0 0 230 126" fill="none" xmlns="http://www.w3.org/2000/svg">
<path d="M30.8992 115.86V121.72C30.8992 121.893 30.8126 121.98 30.6392 121.98H28.8592C28.6992 121.98 28.6192 121.893 28.6192 121.72V107.14C28.6192 107.073 28.6392 107.02 28.6792 106.98C28.7326 106.927 28.7926 106.9 28.8592 106.9H32.8992C34.3792 106.9 35.5459 107.26 36.3992 107.98C37.2659 108.7 37.6992 109.82 37.6992 111.34C37.6992 112.073 37.5726 112.727 37.3192 113.3C37.0792 113.86 36.7326 114.333 36.2792 114.72C35.8392 115.093 35.3126 115.38 34.6992 115.58C34.0992 115.767 33.4392 115.86 32.7192 115.86H30.8992ZM30.8992 109V113.78H32.5192C33.4126 113.78 34.1192 113.593 34.6392 113.22C35.1592 112.833 35.4192 112.2 35.4192 111.32C35.4192 110.56 35.2126 109.987 34.7992 109.6C34.3859 109.2 33.8459 109 33.1792 109H30.8992ZM39.9422 122C39.7955 122 39.7222 121.92 39.7222 121.76V106C39.7222 105.933 39.7422 105.88 39.7822 105.84C39.8355 105.787 39.8955 105.76 39.9622 105.76H41.6422C41.7089 105.76 41.7622 105.787 41.8022 105.84C41.8555 105.88 41.8822 105.933 41.8822 106V121.76C41.8822 121.827 41.8555 121.887 41.8022 121.94C41.7622 121.98 41.7089 122 41.6422 122H39.9422ZM50.7859 121.96C50.6926 121.96 50.6326 121.953 50.6059 121.94C50.5793 121.913 50.5659 121.86 50.5659 121.78V120.88C50.2326 121.347 49.8059 121.7 49.2859 121.94C48.7793 122.167 48.2659 122.28 47.7459 122.28C47.1993 122.28 46.6926 122.207 46.2259 122.06C45.7726 121.913 45.3793 121.693 45.0459 121.4C44.7259 121.107 44.4726 120.747 44.2859 120.32C44.0993 119.88 44.0059 119.373 44.0059 118.8C44.0059 118.12 44.1259 117.527 44.3659 117.02C44.6059 116.5 44.9793 116.073 45.4859 115.74C46.0059 115.393 46.6659 115.14 47.4659 114.98C48.2659 114.807 49.2326 114.72 50.3659 114.72C50.3659 114.467 50.3393 114.213 50.2859 113.96C50.2326 113.707 50.1393 113.48 50.0059 113.28C49.8859 113.08 49.7126 112.92 49.4859 112.8C49.2593 112.667 48.9726 112.6 48.6259 112.6C48.0259 112.6 47.4793 112.68 46.9859 112.84C46.5059 113 46.0526 113.213 45.6259 113.48C45.4126 113.613 45.2659 113.673 45.1859 113.66C45.1193 113.647 45.0859 113.573 45.0859 113.44V111.92C45.0859 111.867 45.0793 111.813 45.0659 111.76C45.0659 111.693 45.0793 111.64 45.1059 111.6C45.1459 111.547 45.2459 111.473 45.4059 111.38C45.8593 111.153 46.3193 110.967 46.7859 110.82C47.2659 110.673 47.8659 110.6 48.5859 110.6C49.9326 110.6 50.9259 110.927 51.5659 111.58C52.2193 112.233 52.5459 113.26 52.5459 114.66V119.4C52.5459 119.773 52.5459 120.167 52.5459 120.58C52.5593 120.98 52.5859 121.333 52.6259 121.64C52.6526 121.853 52.5793 121.96 52.4059 121.96H50.7859ZM50.4259 116.62C48.9459 116.62 47.8859 116.8 47.2459 117.16C46.6059 117.52 46.2859 118.06 46.2859 118.78C46.2859 119.287 46.4326 119.667 46.7259 119.92C47.0193 120.173 47.4126 120.3 47.9059 120.3C48.6659 120.3 49.2726 120.02 49.7259 119.46C50.1926 118.9 50.4259 118.027 50.4259 116.84V116.62ZM62.5844 121.96C62.5177 121.96 62.4577 121.933 62.4044 121.88C62.3644 121.813 62.3444 121.747 62.3444 121.68V115.32C62.3444 114.36 62.191 113.667 61.8844 113.24C61.591 112.813 61.1244 112.6 60.4844 112.6C59.6044 112.6 58.951 112.847 58.5244 113.34C58.111 113.82 57.9044 114.52 57.9044 115.44V121.7C57.9044 121.873 57.8244 121.96 57.6644 121.96H56.0044C55.9377 121.96 55.8777 121.933 55.8244 121.88C55.7844 121.813 55.7644 121.747 55.7644 121.68V113.72C55.7644 113.213 55.7577 112.727 55.7444 112.26C55.7444 111.793 55.731 111.427 55.7044 111.16C55.6777 110.987 55.771 110.9 55.9844 110.9H57.5644C57.711 110.9 57.771 110.953 57.7444 111.06L57.7244 111.78C58.0577 111.46 58.4577 111.187 58.9244 110.96C59.391 110.733 59.931 110.62 60.5444 110.62C61.8244 110.62 62.7977 111 63.4644 111.76C64.1444 112.507 64.4844 113.593 64.4844 115.02V121.7C64.4844 121.873 64.4044 121.96 64.2444 121.96H62.5844ZM73.2333 121.8C73.0466 121.92 72.7466 122.027 72.3333 122.12C71.9333 122.227 71.4999 122.28 71.0333 122.28C70.4733 122.28 70.0266 122.167 69.6933 121.94C69.3599 121.7 69.1133 121.427 68.9533 121.12C68.7666 120.773 68.6533 120.367 68.6133 119.9C68.5733 119.433 68.5533 118.8 68.5533 118V112.98H66.8933C66.8266 112.98 66.7666 112.96 66.7133 112.92C66.6733 112.867 66.6533 112.807 66.6533 112.74V111.16C66.6533 111.093 66.6733 111.04 66.7133 111C66.7666 110.947 66.8266 110.92 66.8933 110.92H68.5533V108.12C68.5533 108.053 68.5799 108 68.6333 107.96C68.6866 107.907 68.7466 107.88 68.8133 107.88H70.4333C70.5133 107.88 70.5733 107.907 70.6133 107.96C70.6666 108 70.6933 108.053 70.6933 108.12V110.92H72.6133C72.6799 110.92 72.7333 110.947 72.7733 111C72.8266 111.04 72.8533 111.093 72.8533 111.16V112.74C72.8533 112.807 72.8266 112.867 72.7733 112.92C72.7333 112.96 72.6799 112.98 72.6133 112.98H70.6933V118.14C70.6933 119.047 70.7133 119.62 70.7533 119.86C70.8066 120.1 70.9333 120.247 71.1333 120.3C71.3333 120.353 71.5599 120.367 71.8133 120.34C71.9866 120.313 72.1799 120.28 72.3933 120.24C72.6066 120.187 72.7933 120.127 72.9533 120.06C73.0199 120.033 73.0666 120.033 73.0933 120.06C73.1199 120.073 73.1466 120.133 73.1733 120.24L73.3333 121.56C73.3466 121.653 73.3133 121.733 73.2333 121.8ZM87.9444 121.94C87.7977 121.993 87.6177 122.04 87.4044 122.08C87.191 122.12 86.9577 122.153 86.7044 122.18C86.4644 122.207 86.2044 122.22 85.9244 122.22C85.6577 122.233 85.3977 122.233 85.1444 122.22C84.3044 122.167 83.5577 121.987 82.9044 121.68C82.2644 121.36 81.7244 120.947 81.2844 120.44C80.8444 119.933 80.511 119.34 80.2844 118.66C80.071 117.967 79.9644 117.22 79.9644 116.42C79.9644 115.58 80.0977 114.807 80.3644 114.1C80.631 113.393 81.0044 112.787 81.4844 112.28C81.9777 111.76 82.5644 111.36 83.2444 111.08C83.9244 110.8 84.6844 110.66 85.5244 110.66C85.9377 110.66 86.351 110.687 86.7644 110.74C87.191 110.78 87.6044 110.867 88.0044 111C88.0577 111.013 88.0977 111.04 88.1244 111.08C88.151 111.12 88.1577 111.2 88.1444 111.32L87.9644 112.7C87.951 112.793 87.9177 112.86 87.8644 112.9C87.8244 112.94 87.7444 112.947 87.6244 112.92C87.331 112.813 86.9844 112.74 86.5844 112.7C86.1977 112.66 85.831 112.64 85.4844 112.64C84.4044 112.64 83.5844 112.987 83.0244 113.68C82.4644 114.373 82.1844 115.287 82.1844 116.42C82.1844 117.513 82.4444 118.393 82.9644 119.06C83.4977 119.727 84.2644 120.12 85.2644 120.24C86.1844 120.347 87.0044 120.287 87.7244 120.06C87.8577 120.007 87.9377 120 87.9644 120.04C88.0044 120.08 88.031 120.14 88.0444 120.22L88.1444 121.6C88.1577 121.707 88.151 121.787 88.1244 121.84C88.111 121.88 88.051 121.913 87.9444 121.94ZM96.3719 121.96C96.2785 121.96 96.2185 121.953 96.1919 121.94C96.1652 121.913 96.1519 121.86 96.1519 121.78V120.88C95.8185 121.347 95.3919 121.7 94.8719 121.94C94.3652 122.167 93.8519 122.28 93.3319 122.28C92.7852 122.28 92.2785 122.207 91.8119 122.06C91.3585 121.913 90.9652 121.693 90.6319 121.4C90.3119 121.107 90.0585 120.747 89.8719 120.32C89.6852 119.88 89.5919 119.373 89.5919 118.8C89.5919 118.12 89.7119 117.527 89.9519 117.02C90.1919 116.5 90.5652 116.073 91.0719 115.74C91.5919 115.393 92.2519 115.14 93.0519 114.98C93.8519 114.807 94.8185 114.72 95.9519 114.72C95.9519 114.467 95.9252 114.213 95.8719 113.96C95.8185 113.707 95.7252 113.48 95.5919 113.28C95.4719 113.08 95.2985 112.92 95.0719 112.8C94.8452 112.667 94.5585 112.6 94.2119 112.6C93.6119 112.6 93.0652 112.68 92.5719 112.84C92.0919 113 91.6385 113.213 91.2119 113.48C90.9985 113.613 90.8519 113.673 90.7719 113.66C90.7052 113.647 90.6719 113.573 90.6719 113.44V111.92C90.6719 111.867 90.6652 111.813 90.6519 111.76C90.6519 111.693 90.6652 111.64 90.6919 111.6C90.7319 111.547 90.8319 111.473 90.9919 111.38C91.4452 111.153 91.9052 110.967 92.3719 110.82C92.8519 110.673 93.4519 110.6 94.1719 110.6C95.5185 110.6 96.5119 110.927 97.1519 111.58C97.8052 112.233 98.1319 113.26 98.1319 114.66V119.4C98.1319 119.773 98.1319 120.167 98.1319 120.58C98.1452 120.98 98.1719 121.333 98.2119 121.64C98.2385 121.853 98.1652 121.96 97.9919 121.96H96.3719ZM96.0119 116.62C94.5319 116.62 93.4719 116.8 92.8319 117.16C92.1919 117.52 91.8719 118.06 91.8719 118.78C91.8719 119.287 92.0185 119.667 92.3119 119.92C92.6052 120.173 92.9985 120.3 93.4919 120.3C94.2519 120.3 94.8585 120.02 95.3119 119.46C95.7785 118.9 96.0119 118.027 96.0119 116.84V116.62ZM106.57 112.92C106.304 112.853 106.07 112.813 105.87 112.8C105.67 112.773 105.497 112.773 105.35 112.8C104.95 112.88 104.624 113.053 104.37 113.32C104.13 113.573 103.944 113.873 103.81 114.22C103.69 114.567 103.61 114.94 103.57 115.34C103.53 115.74 103.51 116.12 103.51 116.48V121.68C103.51 121.867 103.43 121.96 103.27 121.96H101.61C101.464 121.96 101.39 121.86 101.39 121.66V113.6C101.39 113.173 101.384 112.747 101.37 112.32C101.357 111.893 101.35 111.52 101.35 111.2C101.35 111.08 101.37 111.007 101.41 110.98C101.45 110.94 101.517 110.92 101.61 110.92H103.27C103.364 110.92 103.417 110.933 103.43 110.96C103.444 110.987 103.45 111.033 103.45 111.1V111.98C103.544 111.82 103.664 111.66 103.81 111.5C103.97 111.34 104.137 111.2 104.31 111.08C104.497 110.947 104.684 110.847 104.87 110.78C105.057 110.7 105.23 110.66 105.39 110.66C105.644 110.66 105.87 110.667 106.07 110.68C106.284 110.68 106.504 110.747 106.73 110.88C106.797 110.907 106.837 110.953 106.85 111.02C106.864 111.073 106.87 111.127 106.87 111.18V112.68C106.87 112.733 106.85 112.793 106.81 112.86C106.77 112.927 106.69 112.947 106.57 112.92ZM116.936 116.94C116.936 117.047 116.903 117.127 116.836 117.18C116.783 117.233 116.723 117.26 116.656 117.26H110.076C110.143 118.153 110.423 118.887 110.916 119.46C111.409 120.02 112.083 120.3 112.936 120.3C113.376 120.3 113.876 120.247 114.436 120.14C114.996 120.02 115.509 119.82 115.976 119.54C116.069 119.487 116.129 119.493 116.156 119.56C116.183 119.627 116.196 119.713 116.196 119.82V121.2C116.196 121.32 116.176 121.413 116.136 121.48C116.096 121.547 116.016 121.613 115.896 121.68C115.496 121.893 115.023 122.047 114.476 122.14C113.943 122.233 113.396 122.28 112.836 122.28C111.183 122.28 109.929 121.787 109.076 120.8C108.236 119.8 107.816 118.34 107.816 116.42C107.816 115.7 107.909 114.993 108.096 114.3C108.283 113.607 108.563 112.987 108.936 112.44C109.323 111.893 109.809 111.453 110.396 111.12C110.983 110.787 111.676 110.62 112.476 110.62C113.289 110.62 113.976 110.773 114.536 111.08C115.109 111.387 115.576 111.8 115.936 112.32C116.296 112.84 116.556 113.447 116.716 114.14C116.876 114.833 116.956 115.573 116.956 116.36C116.956 116.453 116.949 116.56 116.936 116.68C116.936 116.8 116.936 116.887 116.936 116.94ZM112.556 112.54C112.196 112.54 111.876 112.62 111.596 112.78C111.316 112.94 111.076 113.147 110.876 113.4C110.676 113.653 110.509 113.947 110.376 114.28C110.256 114.613 110.169 114.947 110.116 115.28H114.696C114.696 115.013 114.649 114.72 114.556 114.4C114.476 114.08 114.349 113.787 114.176 113.52C114.003 113.24 113.783 113.007 113.516 112.82C113.249 112.633 112.929 112.54 112.556 112.54ZM129.78 122.46C129.247 122.46 128.733 122.347 128.24 122.12C127.747 121.893 127.333 121.587 127 121.2V124.76C127 124.867 126.987 124.933 126.96 124.96C126.933 125 126.873 125.02 126.78 125.02H125.12C125.04 125.02 124.98 125 124.94 124.96C124.9 124.933 124.88 124.867 124.88 124.76V111.2C124.88 110.987 124.98 110.88 125.18 110.88H126.72C126.907 110.88 127 110.987 127 111.2V111.92C127.373 111.533 127.793 111.233 128.26 111.02C128.727 110.807 129.233 110.7 129.78 110.7C130.5 110.7 131.14 110.84 131.7 111.12C132.273 111.387 132.753 111.773 133.14 112.28C133.54 112.787 133.84 113.407 134.04 114.14C134.253 114.873 134.36 115.7 134.36 116.62C134.36 117.513 134.253 118.32 134.04 119.04C133.827 119.76 133.52 120.373 133.12 120.88C132.733 121.387 132.253 121.773 131.68 122.04C131.12 122.32 130.487 122.46 129.78 122.46ZM129.56 112.74C129.213 112.74 128.887 112.827 128.58 113C128.273 113.16 128 113.407 127.76 113.74C127.533 114.06 127.347 114.46 127.2 114.94C127.067 115.42 127 115.973 127 116.6C127 117.907 127.233 118.873 127.7 119.5C128.167 120.127 128.787 120.44 129.56 120.44C130.387 120.44 131.02 120.107 131.46 119.44C131.9 118.773 132.12 117.827 132.12 116.6C132.12 115.307 131.893 114.34 131.44 113.7C130.987 113.06 130.36 112.74 129.56 112.74ZM137.169 122C137.022 122 136.949 121.92 136.949 121.76V106C136.949 105.933 136.969 105.88 137.009 105.84C137.062 105.787 137.122 105.76 137.189 105.76H138.869C138.935 105.76 138.989 105.787 139.029 105.84C139.082 105.88 139.109 105.933 139.109 106V121.76C139.109 121.827 139.082 121.887 139.029 121.94C138.989 121.98 138.935 122 138.869 122H137.169ZM148.013 121.96C147.919 121.96 147.859 121.953 147.833 121.94C147.806 121.913 147.793 121.86 147.793 121.78V120.88C147.459 121.347 147.033 121.7 146.513 121.94C146.006 122.167 145.493 122.28 144.973 122.28C144.426 122.28 143.919 122.207 143.453 122.06C142.999 121.913 142.606 121.693 142.273 121.4C141.953 121.107 141.699 120.747 141.513 120.32C141.326 119.88 141.233 119.373 141.233 118.8C141.233 118.12 141.353 117.527 141.593 117.02C141.833 116.5 142.206 116.073 142.713 115.74C143.233 115.393 143.893 115.14 144.693 114.98C145.493 114.807 146.459 114.72 147.593 114.72C147.593 114.467 147.566 114.213 147.513 113.96C147.459 113.707 147.366 113.48 147.233 113.28C147.113 113.08 146.939 112.92 146.713 112.8C146.486 112.667 146.199 112.6 145.853 112.6C145.253 112.6 144.706 112.68 144.213 112.84C143.733 113 143.279 113.213 142.853 113.48C142.639 113.613 142.493 113.673 142.413 113.66C142.346 113.647 142.313 113.573 142.313 113.44V111.92C142.313 111.867 142.306 111.813 142.293 111.76C142.293 111.693 142.306 111.64 142.333 111.6C142.373 111.547 142.473 111.473 142.633 111.38C143.086 111.153 143.546 110.967 144.013 110.82C144.493 110.673 145.093 110.6 145.813 110.6C147.159 110.6 148.153 110.927 148.793 111.58C149.446 112.233 149.773 113.26 149.773 114.66V119.4C149.773 119.773 149.773 120.167 149.773 120.58C149.786 120.98 149.813 121.333 149.853 121.64C149.879 121.853 149.806 121.96 149.633 121.96H148.013ZM147.653 116.62C146.173 116.62 145.113 116.8 144.473 117.16C143.833 117.52 143.513 118.06 143.513 118.78C143.513 119.287 143.659 119.667 143.953 119.92C144.246 120.173 144.639 120.3 145.133 120.3C145.893 120.3 146.499 120.02 146.953 119.46C147.419 118.9 147.653 118.027 147.653 116.84V116.62ZM158.331 121.8C158.144 121.92 157.844 122.027 157.431 122.12C157.031 122.227 156.598 122.28 156.131 122.28C155.571 122.28 155.124 122.167 154.791 121.94C154.458 121.7 154.211 121.427 154.051 121.12C153.864 120.773 153.751 120.367 153.711 119.9C153.671 119.433 153.651 118.8 153.651 118V112.98H151.991C151.924 112.98 151.864 112.96 151.811 112.92C151.771 112.867 151.751 112.807 151.751 112.74V111.16C151.751 111.093 151.771 111.04 151.811 111C151.864 110.947 151.924 110.92 151.991 110.92H153.651V108.12C153.651 108.053 153.678 108 153.731 107.96C153.784 107.907 153.844 107.88 153.911 107.88H155.531C155.611 107.88 155.671 107.907 155.711 107.96C155.764 108 155.791 108.053 155.791 108.12V110.92H157.711C157.778 110.92 157.831 110.947 157.871 111C157.924 111.04 157.951 111.093 157.951 111.16V112.74C157.951 112.807 157.924 112.867 157.871 112.92C157.831 112.96 157.778 112.98 157.711 112.98H155.791V118.14C155.791 119.047 155.811 119.62 155.851 119.86C155.904 120.1 156.031 120.247 156.231 120.3C156.431 120.353 156.658 120.367 156.911 120.34C157.084 120.313 157.278 120.28 157.491 120.24C157.704 120.187 157.891 120.127 158.051 120.06C158.118 120.033 158.164 120.033 158.191 120.06C158.218 120.073 158.244 120.133 158.271 120.24L158.431 121.56C158.444 121.653 158.411 121.733 158.331 121.8ZM165.397 107.26C165.397 107.487 165.337 107.587 165.217 107.56C165.057 107.52 164.89 107.487 164.717 107.46C164.543 107.42 164.377 107.4 164.217 107.4C163.883 107.4 163.643 107.487 163.497 107.66C163.35 107.82 163.243 108.027 163.177 108.28C163.15 108.413 163.123 108.593 163.097 108.82C163.07 109.047 163.057 109.3 163.057 109.58V110.92H164.977C165.137 110.92 165.217 111 165.217 111.16V112.7C165.217 112.767 165.19 112.827 165.137 112.88C165.097 112.92 165.043 112.94 164.977 112.94H163.057V121.76C163.057 121.92 162.977 122 162.817 122H161.177C161.017 122 160.937 121.92 160.937 121.76V112.94H159.257C159.19 112.94 159.13 112.92 159.077 112.88C159.037 112.827 159.017 112.767 159.017 112.7V111.16C159.017 111.093 159.037 111.04 159.077 111C159.13 110.947 159.19 110.92 159.257 110.92H160.917V109.72C160.917 109.08 160.957 108.5 161.037 107.98C161.13 107.46 161.297 107 161.537 106.6C161.75 106.267 162.05 105.993 162.437 105.78C162.837 105.553 163.337 105.44 163.937 105.44C164.203 105.44 164.463 105.46 164.717 105.5C164.983 105.527 165.19 105.567 165.337 105.62C165.43 105.673 165.477 105.767 165.477 105.9L165.397 107.26ZM175.862 120.44C175.382 121.04 174.809 121.5 174.142 121.82C173.476 122.127 172.722 122.28 171.882 122.28C171.029 122.28 170.276 122.127 169.622 121.82C168.969 121.513 168.422 121.093 167.982 120.56C167.542 120.027 167.209 119.407 166.982 118.7C166.769 117.993 166.662 117.24 166.662 116.44C166.662 115.64 166.769 114.887 166.982 114.18C167.209 113.473 167.542 112.86 167.982 112.34C168.422 111.807 168.962 111.387 169.602 111.08C170.256 110.773 171.016 110.62 171.882 110.62C172.736 110.62 173.489 110.773 174.142 111.08C174.796 111.387 175.342 111.807 175.782 112.34C176.222 112.86 176.549 113.473 176.762 114.18C176.989 114.887 177.102 115.64 177.102 116.44C177.102 117.227 176.996 117.967 176.782 118.66C176.569 119.34 176.262 119.933 175.862 120.44ZM171.882 112.58C171.362 112.58 170.909 112.693 170.522 112.92C170.149 113.147 169.842 113.447 169.602 113.82C169.362 114.18 169.182 114.593 169.062 115.06C168.942 115.513 168.882 115.973 168.882 116.44C168.882 116.907 168.942 117.373 169.062 117.84C169.182 118.293 169.362 118.707 169.602 119.08C169.842 119.453 170.149 119.753 170.522 119.98C170.909 120.207 171.362 120.32 171.882 120.32C172.402 120.32 172.849 120.207 173.222 119.98C173.609 119.753 173.922 119.453 174.162 119.08C174.402 118.707 174.582 118.293 174.702 117.84C174.822 117.373 174.882 116.907 174.882 116.44C174.882 115.987 174.822 115.533 174.702 115.08C174.582 114.613 174.402 114.2 174.162 113.84C173.922 113.467 173.609 113.167 173.222 112.94C172.849 112.7 172.402 112.58 171.882 112.58ZM184.871 112.92C184.604 112.853 184.371 112.813 184.171 112.8C183.971 112.773 183.798 112.773 183.651 112.8C183.251 112.88 182.924 113.053 182.671 113.32C182.431 113.573 182.244 113.873 182.111 114.22C181.991 114.567 181.911 114.94 181.871 115.34C181.831 115.74 181.811 116.12 181.811 116.48V121.68C181.811 121.867 181.731 121.96 181.571 121.96H179.911C179.764 121.96 179.691 121.86 179.691 121.66V113.6C179.691 113.173 179.684 112.747 179.671 112.32C179.658 111.893 179.651 111.52 179.651 111.2C179.651 111.08 179.671 111.007 179.711 110.98C179.751 110.94 179.818 110.92 179.911 110.92H181.571C181.664 110.92 181.718 110.933 181.731 110.96C181.744 110.987 181.751 111.033 181.751 111.1V111.98C181.844 111.82 181.964 111.66 182.111 111.5C182.271 111.34 182.438 111.2 182.611 111.08C182.798 110.947 182.984 110.847 183.171 110.78C183.358 110.7 183.531 110.66 183.691 110.66C183.944 110.66 184.171 110.667 184.371 110.68C184.584 110.68 184.804 110.747 185.031 110.88C185.098 110.907 185.138 110.953 185.151 111.02C185.164 111.073 185.171 111.127 185.171 111.18V112.68C185.171 112.733 185.151 112.793 185.111 112.86C185.071 112.927 184.991 112.947 184.871 112.92ZM199.817 121.96C199.75 121.96 199.69 121.933 199.637 121.88C199.583 121.813 199.557 121.747 199.557 121.68V114.76C199.557 114.133 199.41 113.627 199.117 113.24C198.823 112.84 198.397 112.64 197.837 112.64C197.437 112.64 197.077 112.727 196.757 112.9C196.45 113.06 196.19 113.287 195.977 113.58C195.763 113.86 195.597 114.2 195.477 114.6C195.37 115 195.317 115.433 195.317 115.9V121.7C195.317 121.873 195.237 121.96 195.077 121.96H193.417C193.35 121.96 193.29 121.933 193.237 121.88C193.183 121.813 193.157 121.747 193.157 121.68V114.76C193.157 113.347 192.57 112.64 191.397 112.64C190.65 112.64 190.063 112.867 189.637 113.32C189.223 113.773 189.017 114.4 189.017 115.2V121.7C189.017 121.873 188.937 121.96 188.777 121.96H187.117C187.05 121.96 186.99 121.933 186.937 121.88C186.897 121.813 186.877 121.747 186.877 121.68V113.72C186.877 113.213 186.87 112.727 186.857 112.26C186.843 111.793 186.823 111.427 186.797 111.16C186.77 110.987 186.863 110.9 187.077 110.9H188.777C188.897 110.9 188.957 110.953 188.957 111.06L188.937 111.76C189.203 111.453 189.57 111.193 190.037 110.98C190.503 110.767 190.997 110.66 191.517 110.66C192.21 110.66 192.843 110.82 193.417 111.14C193.99 111.46 194.403 111.933 194.657 112.56C194.963 111.92 195.417 111.447 196.017 111.14C196.617 110.82 197.257 110.66 197.937 110.66C199.07 110.66 199.983 111 200.677 111.68C201.37 112.347 201.717 113.287 201.717 114.5V121.7C201.717 121.767 201.69 121.827 201.637 121.88C201.597 121.933 201.543 121.96 201.477 121.96H199.817Z" fill="#6C975C"/>
<mask id="path-2-outside-1_179_16" maskUnits="userSpaceOnUse" x="3" y="44" width="226" height="47" fill="black">
<rect fill="white" x="3" y="44" width="226" height="47"/>
<path d="M17.8749 89.4948C12.9265 89.4948 8.47286 87.9553 4.51409 84.8763L7.64812 79.8454C11.167 82.5395 14.6309 83.8866 18.0399 83.8866C19.4694 83.8866 20.5966 83.5567 21.4213 82.8969C22.301 82.1821 22.7409 81.3024 22.7409 80.2577C22.7409 78.7182 20.7065 77.3436 16.6378 76.134C16.5278 76.079 16.3904 76.0241 16.2254 75.9691C16.1155 75.9141 16.033 75.8866 15.978 75.8866C9.60001 74.1821 6.411 71.2955 6.411 67.2268C6.411 64.3677 7.48317 62.0859 9.6275 60.3814C11.8268 58.677 14.7134 57.8247 18.2873 57.8247C21.8062 57.8247 25.1601 58.8694 28.3491 60.9588L25.9574 65.7423C23.4832 64.0928 20.7615 63.268 17.7924 63.268C14.3285 63.268 12.5966 64.3677 12.5966 66.567C12.5966 67.5017 12.9265 68.189 13.5863 68.6289C14.301 69.0137 15.4557 69.3986 17.0502 69.7835C19.4694 70.4433 21.5038 71.1031 23.1533 71.7629C24.2529 72.2577 25.2151 72.7801 26.0399 73.3299C28.1292 74.7594 29.1739 76.9313 29.1739 79.8454C29.1739 82.7045 28.1017 85.0412 25.9574 86.8557C23.868 88.6151 21.1739 89.4948 17.8749 89.4948ZM61.3617 89H55.506V84.8763C52.9218 87.9553 49.5129 89.4948 45.2792 89.4948C42.0353 89.4948 39.3686 88.5876 37.2792 86.7732C35.2449 84.9038 34.2277 82.4845 34.2277 79.5155C34.2277 76.5464 35.3273 74.2921 37.5267 72.7526C39.726 71.2131 42.75 70.4433 46.5988 70.4433H55.0112V69.2887C55.0112 65.2199 52.7294 63.1856 48.1658 63.1856C45.3067 63.1856 42.3377 64.2302 39.2586 66.3196L36.372 62.2783C40.1658 59.3093 44.3995 57.8247 49.0731 57.8247C52.8669 57.8247 55.8634 58.7869 58.0627 60.7113C60.2621 62.5808 61.3617 65.4124 61.3617 69.2062V89ZM54.9287 74.9794H47.671C42.9974 74.9794 40.6607 76.4364 40.6607 79.3505C40.6607 80.8351 41.238 81.9897 42.3926 82.8144C43.5473 83.5842 45.1693 83.9691 47.2586 83.9691C49.4029 83.9691 51.2174 83.3918 52.7019 82.2371C54.1865 81.0275 54.9287 79.4605 54.9287 77.5361V74.9794ZM98.9793 76.4639H74.8968C75.0618 78.6632 76.079 80.4502 77.9484 81.8247C79.8178 83.1993 81.9896 83.8866 84.4638 83.8866C88.3676 83.8866 91.2817 82.677 93.2061 80.2577L96.9174 84.299C93.6185 87.7629 89.3023 89.4948 83.969 89.4948C79.5704 89.4948 75.8865 88.0378 72.9174 85.1237C69.9484 82.2096 68.4638 78.3608 68.4638 73.5773C68.4638 68.9038 69.9759 65.11 72.9999 62.1959C76.024 59.2818 79.6803 57.8247 83.969 57.8247C88.2577 57.8247 91.8315 59.1168 94.6906 61.701C97.5497 64.2852 98.9793 67.7216 98.9793 72.0103V76.4639ZM92.5463 71.3505C92.5463 68.8763 91.7491 66.9244 90.1546 65.4948C88.615 64.0653 86.6082 63.3505 84.1339 63.3505C81.6597 63.3505 79.4879 64.0928 77.6185 65.5773C75.804 67.0619 74.8968 68.9863 74.8968 71.3505H92.5463ZM116.703 89.4948C111.755 89.4948 107.301 87.9553 103.342 84.8763L106.476 79.8454C109.995 82.5395 113.459 83.8866 116.868 83.8866C118.298 83.8866 119.425 83.5567 120.249 82.8969C121.129 82.1821 121.569 81.3024 121.569 80.2577C121.569 78.7182 119.535 77.3436 115.466 76.134C115.356 76.079 115.219 76.0241 115.054 75.9691C114.944 75.9141 114.861 75.8866 114.806 75.8866C108.428 74.1821 105.239 71.2955 105.239 67.2268C105.239 64.3677 106.311 62.0859 108.456 60.3814C110.655 58.677 113.542 57.8247 117.115 57.8247C120.634 57.8247 123.988 58.8694 127.177 60.9588L124.786 65.7423C122.311 64.0928 119.59 63.268 116.621 63.268C113.157 63.268 111.425 64.3677 111.425 66.567C111.425 67.5017 111.755 68.189 112.414 68.6289C113.129 69.0137 114.284 69.3986 115.878 69.7835C118.298 70.4433 120.332 71.1031 121.981 71.7629C123.081 72.2577 124.043 72.7801 124.868 73.3299C126.957 74.7594 128.002 76.9313 128.002 79.8454C128.002 82.7045 126.93 85.0412 124.786 86.8557C122.696 88.6151 120.002 89.4948 116.703 89.4948ZM145.922 89.4948C140.973 89.4948 136.52 87.9553 132.561 84.8763L135.695 79.8454C139.214 82.5395 142.678 83.8866 146.087 83.8866C147.516 83.8866 148.643 83.5567 149.468 82.8969C150.348 82.1821 150.788 81.3024 150.788 80.2577C150.788 78.7182 148.753 77.3436 144.685 76.134C144.575 76.079 144.437 76.0241 144.272 75.9691C144.162 75.9141 144.08 75.8866 144.025 75.8866C137.647 74.1821 134.458 71.2955 134.458 67.2268C134.458 64.3677 135.53 62.0859 137.674 60.3814C139.874 58.677 142.76 57.8247 146.334 57.8247C149.853 57.8247 153.207 58.8694 156.396 60.9588L154.004 65.7423C151.53 64.0928 148.808 63.268 145.839 63.268C142.375 63.268 140.643 64.3677 140.643 66.567C140.643 67.5017 140.973 68.189 141.633 68.6289C142.348 69.0137 143.503 69.3986 145.097 69.7835C147.516 70.4433 149.551 71.1031 151.2 71.7629C152.3 72.2577 153.262 72.7801 154.087 73.3299C156.176 74.7594 157.221 76.9313 157.221 79.8454C157.221 82.7045 156.149 85.0412 154.004 86.8557C151.915 88.6151 149.221 89.4948 145.922 89.4948ZM189.409 89H183.553V84.8763C180.969 87.9553 177.56 89.4948 173.326 89.4948C170.082 89.4948 167.415 88.5876 165.326 86.7732C163.292 84.9038 162.275 82.4845 162.275 79.5155C162.275 76.5464 163.374 74.2921 165.574 72.7526C167.773 71.2131 170.797 70.4433 174.646 70.4433H183.058V69.2887C183.058 65.2199 180.776 63.1856 176.213 63.1856C173.354 63.1856 170.385 64.2302 167.305 66.3196L164.419 62.2783C168.213 59.3093 172.446 57.8247 177.12 57.8247C180.914 57.8247 183.91 58.7869 186.11 60.7113C188.309 62.5808 189.409 65.4124 189.409 69.2062V89ZM182.976 74.9794H175.718C171.044 74.9794 168.708 76.4364 168.708 79.3505C168.708 80.8351 169.285 81.9897 170.44 82.8144C171.594 83.5842 173.216 83.9691 175.305 83.9691C177.45 83.9691 179.264 83.3918 180.749 82.2371C182.233 81.0275 182.976 79.4605 182.976 77.5361V74.9794ZM204.923 89H198.49V46.1959H204.923V71.3505L217.377 58.3196H225.707L214.078 70.4433L226.614 89H218.696L209.624 75.5567L204.923 80.2577V89Z"/>
</mask>
<path d="M17.8749 89.4948C12.9265 89.4948 8.47286 87.9553 4.51409 84.8763L7.64812 79.8454C11.167 82.5395 14.6309 83.8866 18.0399 83.8866C19.4694 83.8866 20.5966 83.5567 21.4213 82.8969C22.301 82.1821 22.7409 81.3024 22.7409 80.2577C22.7409 78.7182 20.7065 77.3436 16.6378 76.134C16.5278 76.079 16.3904 76.0241 16.2254 75.9691C16.1155 75.9141 16.033 75.8866 15.978 75.8866C9.60001 74.1821 6.411 71.2955 6.411 67.2268C6.411 64.3677 7.48317 62.0859 9.6275 60.3814C11.8268 58.677 14.7134 57.8247 18.2873 57.8247C21.8062 57.8247 25.1601 58.8694 28.3491 60.9588L25.9574 65.7423C23.4832 64.0928 20.7615 63.268 17.7924 63.268C14.3285 63.268 12.5966 64.3677 12.5966 66.567C12.5966 67.5017 12.9265 68.189 13.5863 68.6289C14.301 69.0137 15.4557 69.3986 17.0502 69.7835C19.4694 70.4433 21.5038 71.1031 23.1533 71.7629C24.2529 72.2577 25.2151 72.7801 26.0399 73.3299C28.1292 74.7594 29.1739 76.9313 29.1739 79.8454C29.1739 82.7045 28.1017 85.0412 25.9574 86.8557C23.868 88.6151 21.1739 89.4948 17.8749 89.4948ZM61.3617 89H55.506V84.8763C52.9218 87.9553 49.5129 89.4948 45.2792 89.4948C42.0353 89.4948 39.3686 88.5876 37.2792 86.7732C35.2449 84.9038 34.2277 82.4845 34.2277 79.5155C34.2277 76.5464 35.3273 74.2921 37.5267 72.7526C39.726 71.2131 42.75 70.4433 46.5988 70.4433H55.0112V69.2887C55.0112 65.2199 52.7294 63.1856 48.1658 63.1856C45.3067 63.1856 42.3377 64.2302 39.2586 66.3196L36.372 62.2783C40.1658 59.3093 44.3995 57.8247 49.0731 57.8247C52.8669 57.8247 55.8634 58.7869 58.0627 60.7113C60.2621 62.5808 61.3617 65.4124 61.3617 69.2062V89ZM54.9287 74.9794H47.671C42.9974 74.9794 40.6607 76.4364 40.6607 79.3505C40.6607 80.8351 41.238 81.9897 42.3926 82.8144C43.5473 83.5842 45.1693 83.9691 47.2586 83.9691C49.4029 83.9691 51.2174 83.3918 52.7019 82.2371C54.1865 81.0275 54.9287 79.4605 54.9287 77.5361V74.9794ZM98.9793 76.4639H74.8968C75.0618 78.6632 76.079 80.4502 77.9484 81.8247C79.8178 83.1993 81.9896 83.8866 84.4638 83.8866C88.3676 83.8866 91.2817 82.677 93.2061 80.2577L96.9174 84.299C93.6185 87.7629 89.3023 89.4948 83.969 89.4948C79.5704 89.4948 75.8865 88.0378 72.9174 85.1237C69.9484 82.2096 68.4638 78.3608 68.4638 73.5773C68.4638 68.9038 69.9759 65.11 72.9999 62.1959C76.024 59.2818 79.6803 57.8247 83.969 57.8247C88.2577 57.8247 91.8315 59.1168 94.6906 61.701C97.5497 64.2852 98.9793 67.7216 98.9793 72.0103V76.4639ZM92.5463 71.3505C92.5463 68.8763 91.7491 66.9244 90.1546 65.4948C88.615 64.0653 86.6082 63.3505 84.1339 63.3505C81.6597 63.3505 79.4879 64.0928 77.6185 65.5773C75.804 67.0619 74.8968 68.9863 74.8968 71.3505H92.5463ZM116.703 89.4948C111.755 89.4948 107.301 87.9553 103.342 84.8763L106.476 79.8454C109.995 82.5395 113.459 83.8866 116.868 83.8866C118.298 83.8866 119.425 83.5567 120.249 82.8969C121.129 82.1821 121.569 81.3024 121.569 80.2577C121.569 78.7182 119.535 77.3436 115.466 76.134C115.356 76.079 115.219 76.0241 115.054 75.9691C114.944 75.9141 114.861 75.8866 114.806 75.8866C108.428 74.1821 105.239 71.2955 105.239 67.2268C105.239 64.3677 106.311 62.0859 108.456 60.3814C110.655 58.677 113.542 57.8247 117.115 57.8247C120.634 57.8247 123.988 58.8694 127.177 60.9588L124.786 65.7423C122.311 64.0928 119.59 63.268 116.621 63.268C113.157 63.268 111.425 64.3677 111.425 66.567C111.425 67.5017 111.755 68.189 112.414 68.6289C113.129 69.0137 114.284 69.3986 115.878 69.7835C118.298 70.4433 120.332 71.1031 121.981 71.7629C123.081 72.2577 124.043 72.7801 124.868 73.3299C126.957 74.7594 128.002 76.9313 128.002 79.8454C128.002 82.7045 126.93 85.0412 124.786 86.8557C122.696 88.6151 120.002 89.4948 116.703 89.4948ZM145.922 89.4948C140.973 89.4948 136.52 87.9553 132.561 84.8763L135.695 79.8454C139.214 82.5395 142.678 83.8866 146.087 83.8866C147.516 83.8866 148.643 83.5567 149.468 82.8969C150.348 82.1821 150.788 81.3024 150.788 80.2577C150.788 78.7182 148.753 77.3436 144.685 76.134C144.575 76.079 144.437 76.0241 144.272 75.9691C144.162 75.9141 144.08 75.8866 144.025 75.8866C137.647 74.1821 134.458 71.2955 134.458 67.2268C134.458 64.3677 135.53 62.0859 137.674 60.3814C139.874 58.677 142.76 57.8247 146.334 57.8247C149.853 57.8247 153.207 58.8694 156.396 60.9588L154.004 65.7423C151.53 64.0928 148.808 63.268 145.839 63.268C142.375 63.268 140.643 64.3677 140.643 66.567C140.643 67.5017 140.973 68.189 141.633 68.6289C142.348 69.0137 143.503 69.3986 145.097 69.7835C147.516 70.4433 149.551 71.1031 151.2 71.7629C152.3 72.2577 153.262 72.7801 154.087 73.3299C156.176 74.7594 157.221 76.9313 157.221 79.8454C157.221 82.7045 156.149 85.0412 154.004 86.8557C151.915 88.6151 149.221 89.4948 145.922 89.4948ZM189.409 89H183.553V84.8763C180.969 87.9553 177.56 89.4948 173.326 89.4948C170.082 89.4948 167.415 88.5876 165.326 86.7732C163.292 84.9038 162.275 82.4845 162.275 79.5155C162.275 76.5464 163.374 74.2921 165.574 72.7526C167.773 71.2131 170.797 70.4433 174.646 70.4433H183.058V69.2887C183.058 65.2199 180.776 63.1856 176.213 63.1856C173.354 63.1856 170.385 64.2302 167.305 66.3196L164.419 62.2783C168.213 59.3093 172.446 57.8247 177.12 57.8247C180.914 57.8247 183.91 58.7869 186.11 60.7113C188.309 62.5808 189.409 65.4124 189.409 69.2062V89ZM182.976 74.9794H175.718C171.044 74.9794 168.708 76.4364 168.708 79.3505C168.708 80.8351 169.285 81.9897 170.44 82.8144C171.594 83.5842 173.216 83.9691 175.305 83.9691C177.45 83.9691 179.264 83.3918 180.749 82.2371C182.233 81.0275 182.976 79.4605 182.976 77.5361V74.9794ZM204.923 89H198.49V46.1959H204.923V71.3505L217.377 58.3196H225.707L214.078 70.4433L226.614 89H218.696L209.624 75.5567L204.923 80.2577V89Z" fill="black"/>
<path d="M4.51409 84.8763L3.24093 84.0832C2.83475 84.7352 2.98681 85.5887 3.59318 86.0603L4.51409 84.8763ZM7.64812 79.8454L8.55998 78.6544C8.22419 78.3973 7.79546 78.2939 7.37939 78.3696C6.96332 78.4454 6.59856 78.6933 6.37495 79.0522L7.64812 79.8454ZM21.4213 82.8969L22.3584 84.0682L22.3672 84.0611L21.4213 82.8969ZM16.6378 76.134L15.967 77.4757C16.0451 77.5147 16.1266 77.5469 16.2104 77.5718L16.6378 76.134ZM16.2254 75.9691L15.5546 77.3107C15.6181 77.3425 15.6838 77.3697 15.7511 77.3921L16.2254 75.9691ZM15.978 75.8866L15.5907 77.3357C15.7171 77.3695 15.8473 77.3866 15.978 77.3866L15.978 75.8866ZM9.6275 60.3814L8.70864 59.1958C8.70378 59.1996 8.69894 59.2034 8.69413 59.2072L9.6275 60.3814ZM28.3491 60.9588L29.6908 61.6296C30.0311 60.9489 29.8078 60.1212 29.1712 59.7041L28.3491 60.9588ZM25.9574 65.7423L25.1253 66.9903C25.4833 67.229 25.9266 67.3024 26.3424 67.192C26.7582 67.0816 27.1066 66.7979 27.299 66.4131L25.9574 65.7423ZM13.5863 68.6289L12.7542 69.8769C12.7933 69.903 12.8337 69.9273 12.8751 69.9496L13.5863 68.6289ZM17.0502 69.7835L17.4449 68.3364C17.4307 68.3325 17.4164 68.3288 17.4021 68.3254L17.0502 69.7835ZM23.1533 71.7629L23.7688 70.395C23.7495 70.3863 23.73 70.378 23.7104 70.3702L23.1533 71.7629ZM26.0399 73.3299L26.8869 72.0919C26.8819 72.0885 26.8769 72.0852 26.8719 72.0818L26.0399 73.3299ZM25.9574 86.8557L26.9236 88.003L26.9263 88.0007L25.9574 86.8557ZM17.8749 89.4948V87.9948C13.2649 87.9948 9.13432 86.5695 5.43501 83.6923L4.51409 84.8763L3.59318 86.0603C7.8114 89.3411 12.5881 90.9948 17.8749 90.9948V89.4948ZM4.51409 84.8763L5.78726 85.6694L8.92128 80.6385L7.64812 79.8454L6.37495 79.0522L3.24093 84.0832L4.51409 84.8763ZM7.64812 79.8454L6.73625 81.0364C10.438 83.8705 14.2141 85.3866 18.0399 85.3866V83.8866V82.3866C15.0478 82.3866 11.896 81.2085 8.55998 78.6544L7.64812 79.8454ZM18.0399 83.8866V85.3866C19.6901 85.3866 21.1871 85.0052 22.3584 84.0682L21.4213 82.8969L20.4843 81.7256C20.006 82.1082 19.2487 82.3866 18.0399 82.3866V83.8866ZM21.4213 82.8969L22.3672 84.0611C23.5634 83.0891 24.2409 81.7962 24.2409 80.2577H22.7409H21.2409C21.2409 80.8086 21.0386 81.2751 20.4754 81.7327L21.4213 82.8969ZM22.7409 80.2577H24.2409C24.2409 78.7473 23.2322 77.6248 22.0549 76.8293C20.8514 76.0161 19.156 75.3178 17.0653 74.6962L16.6378 76.134L16.2104 77.5718C18.1884 78.1599 19.5445 78.7537 20.3753 79.315C21.2324 79.8941 21.2409 80.2287 21.2409 80.2577H22.7409ZM16.6378 76.134L17.3086 74.7924C17.1152 74.6957 16.9069 74.6151 16.6998 74.546L16.2254 75.9691L15.7511 77.3921C15.8739 77.433 15.9405 77.4624 15.967 77.4757L16.6378 76.134ZM16.2254 75.9691L16.8963 74.6274C16.7745 74.5666 16.4152 74.3866 15.978 74.3866V75.8866V77.3866C15.8704 77.3866 15.7849 77.3736 15.7302 77.3626C15.674 77.3514 15.6318 77.3386 15.6068 77.3302C15.5595 77.3145 15.5394 77.3031 15.5546 77.3107L16.2254 75.9691ZM15.978 75.8866L16.3653 74.4375C13.2946 73.6168 11.1576 72.5516 9.80938 71.3312C8.50875 70.1539 7.911 68.8108 7.911 67.2268H6.411H4.911C4.911 69.7115 5.90776 71.8461 7.79613 73.5554C9.6369 75.2216 12.2834 76.4519 15.5907 77.3357L15.978 75.8866ZM6.411 67.2268H7.911C7.911 64.8018 8.79231 62.9615 10.5609 61.5557L9.6275 60.3814L8.69413 59.2072C6.17403 61.2104 4.911 63.9336 4.911 67.2268H6.411ZM9.6275 60.3814L10.5464 61.5671C12.416 60.1181 14.9505 59.3247 18.2873 59.3247V57.8247V56.3247C14.4763 56.3247 11.2376 57.2359 8.70864 59.1958L9.6275 60.3814ZM18.2873 57.8247V59.3247C21.4897 59.3247 24.5611 60.2702 27.5271 62.2135L28.3491 60.9588L29.1712 59.7041C25.7592 57.4686 22.1227 56.3247 18.2873 56.3247V57.8247ZM28.3491 60.9588L27.0075 60.2879L24.6158 65.0714L25.9574 65.7423L27.299 66.4131L29.6908 61.6296L28.3491 60.9588ZM25.9574 65.7423L26.7894 64.4942C24.0692 62.6807 21.0581 61.768 17.7924 61.768V63.268V64.768C20.4649 64.768 22.8971 65.5049 25.1253 66.9903L25.9574 65.7423ZM17.7924 63.268V61.768C15.9501 61.768 14.3117 62.0517 13.0915 62.8265C11.756 63.6744 11.0966 64.9983 11.0966 66.567H12.5966H14.0966C14.0966 65.9364 14.3031 65.6108 14.6996 65.3591C15.2113 65.0342 16.1709 64.768 17.7924 64.768V63.268ZM12.5966 66.567H11.0966C11.0966 67.8997 11.5977 69.1059 12.7542 69.8769L13.5863 68.6289L14.4183 67.3808C14.2552 67.2721 14.0966 67.1038 14.0966 66.567H12.5966ZM13.5863 68.6289L12.8751 69.9496C13.7676 70.4302 15.0786 70.8507 16.6982 71.2416L17.0502 69.7835L17.4021 68.3254C15.8328 67.9466 14.8345 67.5973 14.2974 67.3082L13.5863 68.6289ZM17.0502 69.7835L16.6555 71.2306C19.0401 71.881 21.0164 72.5237 22.5962 73.1556L23.1533 71.7629L23.7104 70.3702C21.9912 69.6825 19.8988 69.0056 17.4449 68.3364L17.0502 69.7835ZM23.1533 71.7629L22.5377 73.1308C23.5776 73.5987 24.4647 74.0825 25.2078 74.578L26.0399 73.3299L26.8719 72.0818C25.9656 71.4776 24.9283 70.9168 23.7688 70.395L23.1533 71.7629ZM26.0399 73.3299L25.1928 74.5679C26.8069 75.6722 27.6739 77.3398 27.6739 79.8454H29.1739H30.6739C30.6739 76.5228 29.4515 73.8467 26.8869 72.0919L26.0399 73.3299ZM29.1739 79.8454H27.6739C27.6739 82.2723 26.7891 84.187 24.9885 85.7106L25.9574 86.8557L26.9263 88.0007C29.4143 85.8955 30.6739 83.1366 30.6739 79.8454H29.1739ZM25.9574 86.8557L24.9912 85.7083C23.2256 87.1952 20.8968 87.9948 17.8749 87.9948V89.4948V90.9948C21.4509 90.9948 24.5105 90.0351 26.9236 88.003L25.9574 86.8557ZM61.3617 89V90.5C62.1901 90.5 62.8617 89.8284 62.8617 89H61.3617ZM55.506 89H54.006C54.006 89.8284 54.6776 90.5 55.506 90.5V89ZM55.506 84.8763H57.006C57.006 84.2457 56.6117 83.6825 56.0191 83.4668C55.4266 83.2511 54.7625 83.429 54.3571 83.912L55.506 84.8763ZM37.2792 86.7732L36.2643 87.8777C36.2746 87.8872 36.2851 87.8965 36.2957 87.9057L37.2792 86.7732ZM37.5267 72.7526L38.3869 73.9814L38.3869 73.9814L37.5267 72.7526ZM55.0112 70.4433V71.9433C55.8396 71.9433 56.5112 71.2717 56.5112 70.4433H55.0112ZM39.2586 66.3196L38.038 67.1914C38.5114 67.8541 39.427 68.0181 40.1009 67.5608L39.2586 66.3196ZM36.372 62.2783L35.4476 61.0971C34.8153 61.5919 34.6848 62.4969 35.1514 63.1502L36.372 62.2783ZM58.0627 60.7113L57.075 61.8402C57.0804 61.8449 57.0858 61.8496 57.0913 61.8542L58.0627 60.7113ZM54.9287 74.9794H56.4287C56.4287 74.151 55.7571 73.4794 54.9287 73.4794V74.9794ZM42.3926 82.8144L41.5208 84.035C41.5339 84.0444 41.5472 84.0536 41.5606 84.0625L42.3926 82.8144ZM52.7019 82.2371L53.6228 83.4211C53.6318 83.4142 53.6406 83.4071 53.6494 83.4L52.7019 82.2371ZM61.3617 89V87.5H55.506V89V90.5H61.3617V89ZM55.506 89H57.006V84.8763H55.506H54.006V89H55.506ZM55.506 84.8763L54.3571 83.912C52.0748 86.6313 49.0966 87.9948 45.2792 87.9948V89.4948V90.9948C49.9292 90.9948 53.7689 89.2794 56.655 85.8406L55.506 84.8763ZM45.2792 89.4948V87.9948C42.3309 87.9948 40.0334 87.1783 38.2628 85.6406L37.2792 86.7732L36.2957 87.9057C38.7038 89.997 41.7396 90.9948 45.2792 90.9948V89.4948ZM37.2792 86.7732L38.2942 85.6687C36.5939 84.1063 35.7277 82.0998 35.7277 79.5155H34.2277H32.7277C32.7277 82.8692 33.8959 85.7013 36.2643 87.8777L37.2792 86.7732ZM34.2277 79.5155H35.7277C35.7277 76.9753 36.6357 75.2072 38.3869 73.9814L37.5267 72.7526L36.6665 71.5237C34.019 73.377 32.7277 76.1175 32.7277 79.5155H34.2277ZM37.5267 72.7526L38.3869 73.9814C40.2463 72.6798 42.9297 71.9433 46.5988 71.9433V70.4433V68.9433C42.5703 68.9433 39.2057 69.7463 36.6665 71.5237L37.5267 72.7526ZM46.5988 70.4433V71.9433H55.0112V70.4433V68.9433H46.5988V70.4433ZM55.0112 70.4433H56.5112V69.2887H55.0112H53.5112V70.4433H55.0112ZM55.0112 69.2887H56.5112C56.5112 66.9757 55.8547 64.9796 54.2981 63.5917C52.7742 62.2331 50.6391 61.6856 48.1658 61.6856V63.1856V64.6856C50.2561 64.6856 51.5437 65.1552 52.3016 65.831C53.0268 66.4775 53.5112 67.5329 53.5112 69.2887H55.0112ZM48.1658 63.1856V61.6856C44.9278 61.6856 41.6697 62.8707 38.4164 65.0784L39.2586 66.3196L40.1009 67.5608C43.0056 65.5898 45.6857 64.6856 48.1658 64.6856V63.1856ZM39.2586 66.3196L40.4792 65.4477L37.5926 61.4065L36.372 62.2783L35.1514 63.1502L38.038 67.1914L39.2586 66.3196ZM36.372 62.2783L37.2965 63.4596C40.8352 60.6902 44.7456 59.3247 49.0731 59.3247V57.8247V56.3247C44.0534 56.3247 39.4965 57.9284 35.4476 61.0971L36.372 62.2783ZM49.0731 57.8247V59.3247C52.6143 59.3247 55.2223 60.2191 57.075 61.8402L58.0627 60.7113L59.0505 59.5825C56.5045 57.3548 53.1194 56.3247 49.0731 56.3247V57.8247ZM58.0627 60.7113L57.0913 61.8542C58.8572 63.3553 59.8617 65.7049 59.8617 69.2062H61.3617H62.8617C62.8617 65.1198 61.6669 61.8062 59.0342 59.5684L58.0627 60.7113ZM61.3617 69.2062H59.8617V89H61.3617H62.8617V69.2062H61.3617ZM54.9287 74.9794V73.4794H47.671V74.9794V76.4794H54.9287V74.9794ZM47.671 74.9794V73.4794C45.2269 73.4794 43.1395 73.8516 41.6196 74.7993C39.9819 75.8205 39.1607 77.4121 39.1607 79.3505H40.6607H42.1607C42.1607 78.3748 42.5079 77.7809 43.2069 77.345C44.0238 76.8357 45.4415 76.4794 47.671 76.4794V74.9794ZM40.6607 79.3505H39.1607C39.1607 81.293 39.9509 82.9137 41.5208 84.035L42.3926 82.8144L43.2645 81.5938C42.5251 81.0657 42.1607 80.3771 42.1607 79.3505H40.6607ZM42.3926 82.8144L41.5606 84.0625C43.057 85.0601 45.0134 85.4691 47.2586 85.4691V83.9691V82.4691C45.3251 82.4691 44.0376 82.1083 43.2247 81.5664L42.3926 82.8144ZM47.2586 83.9691V85.4691C49.6875 85.4691 51.8387 84.8088 53.6228 83.4211L52.7019 82.2371L51.781 81.0531C50.596 81.9747 49.1184 82.4691 47.2586 82.4691V83.9691ZM52.7019 82.2371L53.6494 83.4C55.4856 81.9039 56.4287 79.9089 56.4287 77.5361H54.9287H53.4287C53.4287 79.0121 52.8873 80.1511 51.7544 81.0743L52.7019 82.2371ZM54.9287 77.5361H56.4287V74.9794H54.9287H53.4287V77.5361H54.9287ZM98.9793 76.4639V77.9639C99.8077 77.9639 100.479 77.2923 100.479 76.4639H98.9793ZM74.8968 76.4639V74.9639C74.4795 74.9639 74.0811 75.1378 73.7972 75.4437C73.5134 75.7496 73.3698 76.16 73.401 76.5761L74.8968 76.4639ZM77.9484 81.8247L77.0598 83.0332L77.0598 83.0332L77.9484 81.8247ZM93.2061 80.2577L94.3109 79.2431C94.0143 78.9201 93.5912 78.7431 93.1529 78.7587C92.7147 78.7742 92.3052 78.9808 92.0322 79.3239L93.2061 80.2577ZM96.9174 84.299L98.0037 85.3335C98.5481 84.7617 98.5563 83.8658 98.0222 83.2844L96.9174 84.299ZM72.9174 85.1237L71.8667 86.1942L71.8667 86.1942L72.9174 85.1237ZM72.9999 62.1959L71.9591 61.1158L71.9591 61.1158L72.9999 62.1959ZM92.5463 71.3505V72.8505C93.3747 72.8505 94.0463 72.1789 94.0463 71.3505H92.5463ZM90.1546 65.4948L89.1339 66.594C89.1403 66.6 89.1467 66.6059 89.1532 66.6117L90.1546 65.4948ZM77.6185 65.5773L76.6857 64.4027C76.6799 64.4072 76.6743 64.4118 76.6686 64.4164L77.6185 65.5773ZM74.8968 71.3505H73.3968C73.3968 72.1789 74.0684 72.8505 74.8968 72.8505V71.3505ZM98.9793 76.4639V74.9639H74.8968V76.4639V77.9639H98.9793V76.4639ZM74.8968 76.4639L73.401 76.5761C73.6006 79.2372 74.8587 81.4147 77.0598 83.0332L77.9484 81.8247L78.837 80.6163C77.2993 79.4856 76.5229 78.0892 76.3926 76.3517L74.8968 76.4639ZM77.9484 81.8247L77.0598 83.0332C79.2043 84.6101 81.6924 85.3866 84.4638 85.3866V83.8866V82.3866C82.2868 82.3866 80.4312 81.7885 78.837 80.6163L77.9484 81.8247ZM84.4638 83.8866V85.3866C88.6933 85.3866 92.0982 84.0601 94.38 81.1915L93.2061 80.2577L92.0322 79.3239C90.4652 81.2939 88.0419 82.3866 84.4638 82.3866V83.8866ZM93.2061 80.2577L92.1013 81.2723L95.8127 85.3136L96.9174 84.299L98.0222 83.2844L94.3109 79.2431L93.2061 80.2577ZM96.9174 84.299L95.8312 83.2645C92.8494 86.3954 88.9439 87.9948 83.969 87.9948V89.4948V90.9948C89.6608 90.9948 94.3876 89.1303 98.0037 85.3335L96.9174 84.299ZM83.969 89.4948V87.9948C79.9384 87.9948 76.6395 86.675 73.9681 84.0532L72.9174 85.1237L71.8667 86.1942C75.1336 89.4006 79.2023 90.9948 83.969 90.9948V89.4948ZM72.9174 85.1237L73.9681 84.0532C71.3301 81.464 69.9638 78.0238 69.9638 73.5773H68.4638H66.9638C66.9638 78.6979 68.5666 82.9552 71.8667 86.1942L72.9174 85.1237ZM68.4638 73.5773H69.9638C69.9638 69.2606 71.3447 65.874 74.0408 63.276L72.9999 62.1959L71.9591 61.1158C68.6071 64.3459 66.9638 68.547 66.9638 73.5773H68.4638ZM72.9999 62.1959L74.0408 63.276C76.7787 60.6376 80.0594 59.3247 83.969 59.3247V57.8247V56.3247C79.3013 56.3247 75.2692 57.926 71.9591 61.1158L72.9999 62.1959ZM83.969 57.8247V59.3247C87.9312 59.3247 91.1333 60.5076 93.6848 62.8138L94.6906 61.701L95.6965 60.5882C92.5298 57.7261 88.5841 56.3247 83.969 56.3247V57.8247ZM94.6906 61.701L93.6848 62.8138C96.1918 65.0798 97.4793 68.0925 97.4793 72.0103H98.9793H100.479C100.479 67.3508 98.9077 63.4907 95.6965 60.5882L94.6906 61.701ZM98.9793 72.0103H97.4793V76.4639H98.9793H100.479V72.0103H98.9793ZM92.5463 71.3505H94.0463C94.0463 68.5231 93.1183 66.1374 91.1559 64.378L90.1546 65.4948L89.1532 66.6117C90.3798 67.7114 91.0463 69.2295 91.0463 71.3505H92.5463ZM90.1546 65.4948L91.1752 64.3957C89.3099 62.6636 86.9152 61.8505 84.1339 61.8505V63.3505V64.8505C86.3012 64.8505 87.9202 65.467 89.1339 66.594L90.1546 65.4948ZM84.1339 63.3505V61.8505C81.3343 61.8505 78.8306 62.6993 76.6857 64.4027L77.6185 65.5773L78.5513 66.752C80.1452 65.4863 81.9851 64.8505 84.1339 64.8505V63.3505ZM77.6185 65.5773L76.6686 64.4164C74.5026 66.1886 73.3968 68.5408 73.3968 71.3505H74.8968H76.3968C76.3968 69.4317 77.1055 67.9351 78.5683 66.7383L77.6185 65.5773ZM74.8968 71.3505V72.8505H92.5463V71.3505V69.8505H74.8968V71.3505ZM103.342 84.8763L102.069 84.0832C101.663 84.7352 101.815 85.5887 102.421 86.0603L103.342 84.8763ZM106.476 79.8454L107.388 78.6544C107.052 78.3973 106.624 78.2939 106.208 78.3696C105.791 78.4454 105.427 78.6933 105.203 79.0522L106.476 79.8454ZM120.249 82.8969L121.187 84.0682L121.195 84.0611L120.249 82.8969ZM115.466 76.134L114.795 77.4757C114.873 77.5147 114.955 77.5469 115.038 77.5718L115.466 76.134ZM115.054 75.9691L114.383 77.3107C114.446 77.3425 114.512 77.3697 114.579 77.3921L115.054 75.9691ZM114.806 75.8866L114.419 77.3357C114.545 77.3695 114.675 77.3866 114.806 77.3866V75.8866ZM108.456 60.3814L107.537 59.1958C107.532 59.1996 107.527 59.2034 107.522 59.2072L108.456 60.3814ZM127.177 60.9588L128.519 61.6296C128.859 60.9489 128.636 60.1212 127.999 59.7041L127.177 60.9588ZM124.786 65.7423L123.953 66.9903C124.311 67.229 124.755 67.3024 125.171 67.192C125.586 67.0816 125.935 66.7979 126.127 66.4131L124.786 65.7423ZM112.414 68.6289L111.582 69.8769C111.621 69.903 111.662 69.9273 111.703 69.9496L112.414 68.6289ZM115.878 69.7835L116.273 68.3364C116.259 68.3325 116.245 68.3288 116.23 68.3254L115.878 69.7835ZM121.981 71.7629L122.597 70.395C122.578 70.3863 122.558 70.378 122.538 70.3702L121.981 71.7629ZM124.868 73.3299L125.715 72.0919C125.71 72.0885 125.705 72.0852 125.7 72.0818L124.868 73.3299ZM124.786 86.8557L125.752 88.003L125.754 88.0007L124.786 86.8557ZM116.703 89.4948V87.9948C112.093 87.9948 107.962 86.5695 104.263 83.6923L103.342 84.8763L102.421 86.0603C106.64 89.3411 111.416 90.9948 116.703 90.9948V89.4948ZM103.342 84.8763L104.615 85.6694L107.749 80.6385L106.476 79.8454L105.203 79.0522L102.069 84.0832L103.342 84.8763ZM106.476 79.8454L105.564 81.0364C109.266 83.8705 113.042 85.3866 116.868 85.3866V83.8866V82.3866C113.876 82.3866 110.724 81.2085 107.388 78.6544L106.476 79.8454ZM116.868 83.8866V85.3866C118.518 85.3866 120.015 85.0052 121.186 84.0682L120.249 82.8969L119.312 81.7256C118.834 82.1082 118.077 82.3866 116.868 82.3866V83.8866ZM120.249 82.8969L121.195 84.0611C122.392 83.0891 123.069 81.7962 123.069 80.2577H121.569H120.069C120.069 80.8086 119.867 81.2751 119.304 81.7327L120.249 82.8969ZM121.569 80.2577H123.069C123.069 78.7473 122.06 77.6248 120.883 76.8293C119.68 76.0161 117.984 75.3178 115.893 74.6962L115.466 76.134L115.038 77.5718C117.017 78.1599 118.373 78.7537 119.203 79.315C120.061 79.8941 120.069 80.2287 120.069 80.2577H121.569ZM115.466 76.134L116.137 74.7924C115.943 74.6957 115.735 74.6151 115.528 74.546L115.054 75.9691L114.579 77.3921C114.702 77.433 114.769 77.4624 114.795 77.4757L115.466 76.134ZM115.054 75.9691L115.724 74.6274C115.603 74.5666 115.243 74.3866 114.806 74.3866V75.8866V77.3866C114.699 77.3866 114.613 77.3736 114.558 77.3626C114.502 77.3514 114.46 77.3386 114.435 77.3302C114.388 77.3145 114.368 77.3031 114.383 77.3107L115.054 75.9691ZM114.806 75.8866L115.193 74.4375C112.123 73.6168 109.986 72.5516 108.638 71.3312C107.337 70.1539 106.739 68.8108 106.739 67.2268H105.239H103.739C103.739 69.7115 104.736 71.8461 106.624 73.5554C108.465 75.2216 111.112 76.4519 114.419 77.3357L114.806 75.8866ZM105.239 67.2268H106.739C106.739 64.8018 107.62 62.9615 109.389 61.5557L108.456 60.3814L107.522 59.2072C105.002 61.2104 103.739 63.9336 103.739 67.2268H105.239ZM108.456 60.3814L109.374 61.5671C111.244 60.1181 113.779 59.3247 117.115 59.3247V57.8247V56.3247C113.304 56.3247 110.066 57.2359 107.537 59.1958L108.456 60.3814ZM117.115 57.8247V59.3247C120.318 59.3247 123.389 60.2702 126.355 62.2135L127.177 60.9588L127.999 59.7041C124.587 57.4686 120.951 56.3247 117.115 56.3247V57.8247ZM127.177 60.9588L125.836 60.2879L123.444 65.0714L124.786 65.7423L126.127 66.4131L128.519 61.6296L127.177 60.9588ZM124.786 65.7423L125.618 64.4942C122.897 62.6807 119.886 61.768 116.621 61.768V63.268V64.768C119.293 64.768 121.725 65.5049 123.953 66.9903L124.786 65.7423ZM116.621 63.268V61.768C114.778 61.768 113.14 62.0517 111.92 62.8265C110.584 63.6744 109.925 64.9983 109.925 66.567H111.425H112.925C112.925 65.9364 113.131 65.6108 113.528 65.3591C114.039 65.0342 114.999 64.768 116.621 64.768V63.268ZM111.425 66.567H109.925C109.925 67.8997 110.426 69.1059 111.582 69.8769L112.414 68.6289L113.246 67.3808C113.083 67.2721 112.925 67.1038 112.925 66.567H111.425ZM112.414 68.6289L111.703 69.9496C112.596 70.4302 113.907 70.8507 115.526 71.2416L115.878 69.7835L116.23 68.3254C114.661 67.9466 113.663 67.5973 113.126 67.3082L112.414 68.6289ZM115.878 69.7835L115.484 71.2306C117.868 71.881 119.844 72.5237 121.424 73.1556L121.981 71.7629L122.538 70.3702C120.819 69.6825 118.727 69.0056 116.273 68.3364L115.878 69.7835ZM121.981 71.7629L121.366 73.1308C122.406 73.5987 123.293 74.0825 124.036 74.578L124.868 73.3299L125.7 72.0818C124.794 71.4776 123.756 70.9168 122.597 70.395L121.981 71.7629ZM124.868 73.3299L124.021 74.5679C125.635 75.6722 126.502 77.3398 126.502 79.8454H128.002H129.502C129.502 76.5228 128.28 73.8467 125.715 72.0919L124.868 73.3299ZM128.002 79.8454H126.502C126.502 82.2723 125.617 84.187 123.817 85.7106L124.786 86.8557L125.754 88.0007C128.242 85.8955 129.502 83.1366 129.502 79.8454H128.002ZM124.786 86.8557L123.819 85.7083C122.054 87.1952 119.725 87.9948 116.703 87.9948V89.4948V90.9948C120.279 90.9948 123.339 90.0351 125.752 88.003L124.786 86.8557ZM132.561 84.8763L131.288 84.0832C130.882 84.7352 131.034 85.5887 131.64 86.0603L132.561 84.8763ZM135.695 79.8454L136.607 78.6544C136.271 78.3973 135.842 78.2939 135.426 78.3696C135.01 78.4454 134.645 78.6933 134.422 79.0522L135.695 79.8454ZM149.468 82.8969L150.405 84.0682L150.414 84.0611L149.468 82.8969ZM144.685 76.134L144.014 77.4757C144.092 77.5147 144.173 77.5469 144.257 77.5718L144.685 76.134ZM144.272 75.9691L143.601 77.3107C143.665 77.3425 143.731 77.3697 143.798 77.3921L144.272 75.9691ZM144.025 75.8866L143.638 77.3357C143.764 77.3695 143.894 77.3866 144.025 77.3866V75.8866ZM137.674 60.3814L136.756 59.1958C136.751 59.1996 136.746 59.2034 136.741 59.2072L137.674 60.3814ZM156.396 60.9588L157.738 61.6296C158.078 60.9489 157.855 60.1212 157.218 59.7041L156.396 60.9588ZM154.004 65.7423L153.172 66.9903C153.53 67.229 153.973 67.3024 154.389 67.192C154.805 67.0816 155.153 66.7979 155.346 66.4131L154.004 65.7423ZM141.633 68.6289L140.801 69.8769C140.84 69.903 140.881 69.9273 140.922 69.9496L141.633 68.6289ZM145.097 69.7835L145.492 68.3364C145.478 68.3325 145.463 68.3288 145.449 68.3254L145.097 69.7835ZM151.2 71.7629L151.816 70.395C151.796 70.3863 151.777 70.378 151.757 70.3702L151.2 71.7629ZM154.087 73.3299L154.934 72.0919C154.929 72.0885 154.924 72.0852 154.919 72.0818L154.087 73.3299ZM154.004 86.8557L154.97 88.003L154.973 88.0007L154.004 86.8557ZM145.922 89.4948V87.9948C141.312 87.9948 137.181 86.5695 133.482 83.6923L132.561 84.8763L131.64 86.0603C135.858 89.3411 140.635 90.9948 145.922 90.9948V89.4948ZM132.561 84.8763L133.834 85.6694L136.968 80.6385L135.695 79.8454L134.422 79.0522L131.288 84.0832L132.561 84.8763ZM135.695 79.8454L134.783 81.0364C138.485 83.8705 142.261 85.3866 146.087 85.3866V83.8866V82.3866C143.095 82.3866 139.943 81.2085 136.607 78.6544L135.695 79.8454ZM146.087 83.8866V85.3866C147.737 85.3866 149.234 85.0052 150.405 84.0682L149.468 82.8969L148.531 81.7256C148.053 82.1082 147.296 82.3866 146.087 82.3866V83.8866ZM149.468 82.8969L150.414 84.0611C151.61 83.0891 152.288 81.7962 152.288 80.2577H150.788H149.288C149.288 80.8086 149.086 81.2751 148.522 81.7327L149.468 82.8969ZM150.788 80.2577H152.288C152.288 78.7473 151.279 77.6248 150.102 76.8293C148.898 76.0161 147.203 75.3178 145.112 74.6962L144.685 76.134L144.257 77.5718C146.235 78.1599 147.591 78.7537 148.422 79.315C149.279 79.8941 149.288 80.2287 149.288 80.2577H150.788ZM144.685 76.134L145.356 74.7924C145.162 74.6957 144.954 74.6151 144.747 74.546L144.272 75.9691L143.798 77.3921C143.921 77.433 143.987 77.4624 144.014 77.4757L144.685 76.134ZM144.272 75.9691L144.943 74.6274C144.821 74.5666 144.462 74.3866 144.025 74.3866V75.8866V77.3866C143.917 77.3866 143.832 77.3736 143.777 77.3626C143.721 77.3514 143.679 77.3386 143.654 77.3302C143.606 77.3145 143.586 77.3031 143.601 77.3107L144.272 75.9691ZM144.025 75.8866L144.412 74.4375C141.341 73.6168 139.204 72.5516 137.856 71.3312C136.556 70.1539 135.958 68.8108 135.958 67.2268H134.458H132.958C132.958 69.7115 133.955 71.8461 135.843 73.5554C137.684 75.2216 140.33 76.4519 143.638 77.3357L144.025 75.8866ZM134.458 67.2268H135.958C135.958 64.8018 136.839 62.9615 138.608 61.5557L137.674 60.3814L136.741 59.2072C134.221 61.2104 132.958 63.9336 132.958 67.2268H134.458ZM137.674 60.3814L138.593 61.5671C140.463 60.1181 142.997 59.3247 146.334 59.3247V57.8247V56.3247C142.523 56.3247 139.284 57.2359 136.756 59.1958L137.674 60.3814ZM146.334 57.8247V59.3247C149.537 59.3247 152.608 60.2702 155.574 62.2135L156.396 60.9588L157.218 59.7041C153.806 57.4686 150.17 56.3247 146.334 56.3247V57.8247ZM156.396 60.9588L155.054 60.2879L152.663 65.0714L154.004 65.7423L155.346 66.4131L157.738 61.6296L156.396 60.9588ZM154.004 65.7423L154.836 64.4942C152.116 62.6807 149.105 61.768 145.839 61.768V63.268V64.768C148.512 64.768 150.944 65.5049 153.172 66.9903L154.004 65.7423ZM145.839 63.268V61.768C143.997 61.768 142.359 62.0517 141.138 62.8265C139.803 63.6744 139.143 64.9983 139.143 66.567H140.643H142.143C142.143 65.9364 142.35 65.6108 142.746 65.3591C143.258 65.0342 144.218 64.768 145.839 64.768V63.268ZM140.643 66.567H139.143C139.143 67.8997 139.645 69.1059 140.801 69.8769L141.633 68.6289L142.465 67.3808C142.302 67.2721 142.143 67.1038 142.143 66.567H140.643ZM141.633 68.6289L140.922 69.9496C141.814 70.4302 143.125 70.8507 144.745 71.2416L145.097 69.7835L145.449 68.3254C143.88 67.9466 142.881 67.5973 142.344 67.3082L141.633 68.6289ZM145.097 69.7835L144.702 71.2306C147.087 71.881 149.063 72.5237 150.643 73.1556L151.2 71.7629L151.757 70.3702C150.038 69.6825 147.946 69.0056 145.492 68.3364L145.097 69.7835ZM151.2 71.7629L150.585 73.1308C151.624 73.5987 152.512 74.0825 153.255 74.578L154.087 73.3299L154.919 72.0818C154.012 71.4776 152.975 70.9168 151.816 70.395L151.2 71.7629ZM154.087 73.3299L153.24 74.5679C154.854 75.6722 155.721 77.3398 155.721 79.8454H157.221H158.721C158.721 76.5228 157.498 73.8467 154.934 72.0919L154.087 73.3299ZM157.221 79.8454H155.721C155.721 82.2723 154.836 84.187 153.035 85.7106L154.004 86.8557L154.973 88.0007C157.461 85.8955 158.721 83.1366 158.721 79.8454H157.221ZM154.004 86.8557L153.038 85.7083C151.272 87.1952 148.944 87.9948 145.922 87.9948V89.4948V90.9948C149.498 90.9948 152.557 90.0351 154.97 88.003L154.004 86.8557ZM189.409 89V90.5C190.237 90.5 190.909 89.8284 190.909 89H189.409ZM183.553 89H182.053C182.053 89.8284 182.724 90.5 183.553 90.5V89ZM183.553 84.8763H185.053C185.053 84.2457 184.659 83.6825 184.066 83.4668C183.473 83.2511 182.809 83.429 182.404 83.912L183.553 84.8763ZM165.326 86.7732L164.311 87.8777C164.322 87.8872 164.332 87.8965 164.343 87.9057L165.326 86.7732ZM165.574 72.7526L166.434 73.9814L166.434 73.9814L165.574 72.7526ZM183.058 70.4433V71.9433C183.886 71.9433 184.558 71.2717 184.558 70.4433H183.058ZM167.305 66.3196L166.085 67.1914C166.558 67.8541 167.474 68.0181 168.148 67.5608L167.305 66.3196ZM164.419 62.2783L163.494 61.0971C162.862 61.5919 162.732 62.4969 163.198 63.1502L164.419 62.2783ZM186.11 60.7113L185.122 61.8402C185.127 61.8449 185.133 61.8496 185.138 61.8542L186.11 60.7113ZM182.976 74.9794H184.476C184.476 74.151 183.804 73.4794 182.976 73.4794V74.9794ZM170.44 82.8144L169.568 84.035C169.581 84.0444 169.594 84.0536 169.607 84.0625L170.44 82.8144ZM180.749 82.2371L181.67 83.4211C181.679 83.4142 181.688 83.4071 181.696 83.4L180.749 82.2371ZM189.409 89V87.5H183.553V89V90.5H189.409V89ZM183.553 89H185.053V84.8763H183.553H182.053V89H183.553ZM183.553 84.8763L182.404 83.912C180.122 86.6313 177.143 87.9948 173.326 87.9948V89.4948V90.9948C177.976 90.9948 181.816 89.2794 184.702 85.8406L183.553 84.8763ZM173.326 89.4948V87.9948C170.378 87.9948 168.08 87.1783 166.31 85.6406L165.326 86.7732L164.343 87.9057C166.751 89.997 169.786 90.9948 173.326 90.9948V89.4948ZM165.326 86.7732L166.341 85.6687C164.641 84.1063 163.775 82.0998 163.775 79.5155H162.275H160.775C160.775 82.8692 161.943 85.7013 164.311 87.8777L165.326 86.7732ZM162.275 79.5155H163.775C163.775 76.9753 164.683 75.2072 166.434 73.9814L165.574 72.7526L164.713 71.5237C162.066 73.377 160.775 76.1175 160.775 79.5155H162.275ZM165.574 72.7526L166.434 73.9814C168.293 72.6798 170.977 71.9433 174.646 71.9433V70.4433V68.9433C170.617 68.9433 167.253 69.7463 164.713 71.5237L165.574 72.7526ZM174.646 70.4433V71.9433H183.058V70.4433V68.9433H174.646V70.4433ZM183.058 70.4433H184.558V69.2887H183.058H181.558V70.4433H183.058ZM183.058 69.2887H184.558C184.558 66.9757 183.902 64.9796 182.345 63.5917C180.821 62.2331 178.686 61.6856 176.213 61.6856V63.1856V64.6856C178.303 64.6856 179.591 65.1552 180.349 65.831C181.074 66.4775 181.558 67.5329 181.558 69.2887H183.058ZM176.213 63.1856V61.6856C172.975 61.6856 169.717 62.8707 166.463 65.0784L167.305 66.3196L168.148 67.5608C171.052 65.5898 173.733 64.6856 176.213 64.6856V63.1856ZM167.305 66.3196L168.526 65.4477L165.639 61.4065L164.419 62.2783L163.198 63.1502L166.085 67.1914L167.305 66.3196ZM164.419 62.2783L165.343 63.4596C168.882 60.6902 172.792 59.3247 177.12 59.3247V57.8247V56.3247C172.1 56.3247 167.543 57.9284 163.494 61.0971L164.419 62.2783ZM177.12 57.8247V59.3247C180.661 59.3247 183.269 60.2191 185.122 61.8402L186.11 60.7113L187.097 59.5825C184.551 57.3548 181.166 56.3247 177.12 56.3247V57.8247ZM186.11 60.7113L185.138 61.8542C186.904 63.3553 187.909 65.7049 187.909 69.2062H189.409H190.909C190.909 65.1198 189.714 61.8062 187.081 59.5684L186.11 60.7113ZM189.409 69.2062H187.909V89H189.409H190.909V69.2062H189.409ZM182.976 74.9794V73.4794H175.718V74.9794V76.4794H182.976V74.9794ZM175.718 74.9794V73.4794C173.274 73.4794 171.186 73.8516 169.666 74.7993C168.029 75.8205 167.208 77.4121 167.208 79.3505H168.708H170.208C170.208 78.3748 170.555 77.7809 171.254 77.345C172.071 76.8357 173.488 76.4794 175.718 76.4794V74.9794ZM168.708 79.3505H167.208C167.208 81.293 167.998 82.9137 169.568 84.035L170.44 82.8144L171.311 81.5938C170.572 81.0657 170.208 80.3771 170.208 79.3505H168.708ZM170.44 82.8144L169.607 84.0625C171.104 85.0601 173.06 85.4691 175.305 85.4691V83.9691V82.4691C173.372 82.4691 172.084 82.1083 171.272 81.5664L170.44 82.8144ZM175.305 83.9691V85.4691C177.734 85.4691 179.886 84.8088 181.67 83.4211L180.749 82.2371L179.828 81.0531C178.643 81.9747 177.165 82.4691 175.305 82.4691V83.9691ZM180.749 82.2371L181.696 83.4C183.532 81.9039 184.476 79.9089 184.476 77.5361H182.976H181.476C181.476 79.0121 180.934 80.1511 179.801 81.0743L180.749 82.2371ZM182.976 77.5361H184.476V74.9794H182.976H181.476V77.5361H182.976ZM204.923 89V90.5C205.752 90.5 206.423 89.8284 206.423 89H204.923ZM198.49 89H196.99C196.99 89.8284 197.662 90.5 198.49 90.5V89ZM198.49 46.1959V44.6959C197.662 44.6959 196.99 45.3674 196.99 46.1959H198.49ZM204.923 46.1959H206.423C206.423 45.3674 205.752 44.6959 204.923 44.6959V46.1959ZM204.923 71.3505H203.423C203.423 71.9634 203.796 72.5146 204.365 72.7427C204.934 72.9709 205.584 72.83 206.007 72.3869L204.923 71.3505ZM217.377 58.3196V56.8196C216.967 56.8196 216.575 56.9871 216.292 57.2832L217.377 58.3196ZM225.707 58.3196L226.789 59.3579C227.205 58.9242 227.322 58.284 227.086 57.7312C226.851 57.1783 226.308 56.8196 225.707 56.8196V58.3196ZM214.078 70.4433L212.995 69.405C212.506 69.915 212.439 70.6974 212.835 71.283L214.078 70.4433ZM226.614 89V90.5C227.169 90.5 227.678 90.1937 227.938 89.7037C228.199 89.2137 228.167 88.6201 227.857 88.1603L226.614 89ZM218.696 89L217.453 89.8391C217.732 90.2523 218.198 90.5 218.696 90.5V89ZM209.624 75.5567L210.867 74.7176C210.617 74.3463 210.214 74.1065 209.768 74.0636C209.322 74.0207 208.88 74.1793 208.563 74.496L209.624 75.5567ZM204.923 80.2577L203.862 79.1971C203.581 79.4784 203.423 79.8599 203.423 80.2577H204.923ZM204.923 89V87.5H198.49V89V90.5H204.923V89ZM198.49 89H199.99V46.1959H198.49H196.99V89H198.49ZM198.49 46.1959V47.6959H204.923V46.1959V44.6959H198.49V46.1959ZM204.923 46.1959H203.423V71.3505H204.923H206.423V46.1959H204.923ZM204.923 71.3505L206.007 72.3869L218.461 59.356L217.377 58.3196L216.292 57.2832L203.839 70.3141L204.923 71.3505ZM217.377 58.3196V59.8196H225.707V58.3196V56.8196H217.377V58.3196ZM225.707 58.3196L224.624 57.2812L212.995 69.405L214.078 70.4433L215.16 71.4816L226.789 59.3579L225.707 58.3196ZM214.078 70.4433L212.835 71.283L225.371 89.8397L226.614 89L227.857 88.1603L215.321 69.6036L214.078 70.4433ZM226.614 89V87.5H218.696V89V90.5H226.614V89ZM218.696 89L219.94 88.1609L210.867 74.7176L209.624 75.5567L208.381 76.3958L217.453 89.8391L218.696 89ZM209.624 75.5567L208.563 74.496L203.862 79.1971L204.923 80.2577L205.984 81.3184L210.685 76.6174L209.624 75.5567ZM204.923 80.2577H203.423V89H204.923H206.423V80.2577H204.923Z" fill="black" mask="url(#path-2-outside-1_179_16)"/>
<path d="M113.474 22.4994C113.407 16.9911 112.669 12.7182 107.479 8C102.248 3.24477 97.3827 2.10749 90.9804 2.00754C90.4281 1.99892 89.9764 2.44758 90.001 2.99931C90.1678 6.74524 91.35 10.9121 95.4792 15.5C101.186 20.7308 106.075 23.2481 112.478 23.482C113.03 23.5021 113.48 23.0516 113.474 22.4994Z" fill="#6C975C"/>
<path d="M116.927 22.492C116.994 16.9837 117.731 12.7108 122.921 7.99258C128.152 3.23736 133.018 2.10008 139.42 2.00012C139.972 1.9915 140.424 2.44016 140.4 2.9919C140.233 6.73782 139.051 10.9047 134.921 15.4926C129.215 20.7234 124.326 23.2407 117.922 23.4746C117.37 23.4947 116.92 23.0442 116.927 22.492Z" fill="#6C975C"/>
<path d="M107.479 8L108.488 6.89009L107.479 8ZM113.474 22.4994L114.974 22.4812L113.474 22.4994ZM112.478 23.482L112.424 24.981L112.478 23.482ZM95.4792 15.5L94.3643 16.5035L94.4125 16.557L94.4656 16.6057L95.4792 15.5ZM90.001 2.99931L91.4995 2.93257L90.001 2.99931ZM90.9804 2.00754L90.9569 3.50736L90.9804 2.00754ZM111.696 24.3567C112.169 25.0367 113.104 25.2044 113.784 24.7313C114.464 24.2582 114.631 23.3233 114.158 22.6433L111.696 24.3567ZM106.927 16L105.902 17.0957L106.927 16ZM101.165 10.194C100.443 9.78652 99.5284 10.0409 99.1209 10.7622C98.7134 11.4835 98.9677 12.3985 99.689 12.806L101.165 10.194ZM122.921 7.99258L121.912 6.88267L122.921 7.99258ZM116.927 22.492L115.427 22.4738L116.927 22.492ZM117.922 23.4746L117.977 24.9736L117.922 23.4746ZM134.921 15.4926L135.935 16.5983L135.988 16.5496L136.036 16.496L134.921 15.4926ZM140.4 2.9919L138.901 2.92516L140.4 2.9919ZM139.42 2.00012L139.444 3.49994L139.42 2.00012ZM116.242 22.6359C115.769 23.3159 115.937 24.2507 116.617 24.7239C117.297 25.197 118.232 25.0293 118.705 24.3493L116.242 22.6359ZM123.474 15.9926L124.498 17.0883L123.474 15.9926ZM130.712 12.7986C131.433 12.3911 131.687 11.476 131.28 10.7548C130.872 10.0335 129.957 9.77911 129.236 10.1866L130.712 12.7986ZM94 45C93.1715 45 92.5 45.6716 92.5 46.5C92.5 47.3284 93.1715 48 94 48V45ZM102.5 44L101.6 42.8L101.515 42.864L101.439 42.9393L102.5 44ZM111 39.5L110.834 38.0092L110.718 38.0221L110.605 38.0529L111 39.5ZM115.5 39L115.666 40.4908L117 40.3426L117 39L115.5 39ZM106.5 41L105.909 39.6213L105.744 39.6921L105.6 39.8L106.5 41ZM108.25 40.25L107.855 38.8029L107.755 38.8303L107.659 38.8713L108.25 40.25ZM137.5 48C138.328 48 139 47.3284 139 46.5C139 45.6716 138.328 45 137.5 45V48ZM129 44L130.061 42.9393L129.985 42.864L129.9 42.8L129 44ZM120.5 39.5L120.895 38.0529L120.782 38.0221L120.666 38.0092L120.5 39.5ZM116.166 37.5092C115.342 37.4177 114.601 38.011 114.509 38.8344C114.418 39.6577 115.011 40.3993 115.834 40.4908L116.166 37.5092ZM125 41L125.9 39.8L125.756 39.6921L125.591 39.6213L125 41ZM123.25 40.25L123.841 38.8713L123.745 38.8303L123.645 38.8029L123.25 40.25ZM115 31L116.488 30.8139L116.482 30.7596L116.471 30.7058L115 31ZM114.5 28.5L115.971 28.2058L115.953 28.1143L115.923 28.0257L114.5 28.5ZM115.769 31L114.298 30.7058L114.279 30.8017L114.273 30.8992L115.769 31ZM116.269 28.5L114.846 28.0256L114.817 28.1142L114.798 28.2058L116.269 28.5ZM119.692 22.9743C119.954 22.1884 119.53 21.3389 118.744 21.077C117.958 20.815 117.108 21.2397 116.846 22.0256L119.692 22.9743ZM107.479 8L106.47 9.10991C108.914 11.3313 110.24 13.38 110.986 15.4598C111.741 17.567 111.941 19.8106 111.974 22.5175L113.474 22.4994L114.974 22.4812C114.94 19.6799 114.737 17.0329 113.81 14.447C112.872 11.8337 111.235 9.38683 108.488 6.89009L107.479 8ZM112.478 23.482L112.533 21.983C106.599 21.7663 102.035 19.4744 96.4928 14.3943L95.4792 15.5L94.4656 16.6057C100.336 21.9873 105.55 24.7299 112.424 24.981L112.478 23.482ZM95.4792 15.5L96.5941 14.4965C92.7094 10.1803 91.6517 6.34951 91.4995 2.93257L90.001 2.99931L88.5024 3.06606C88.6839 7.14097 89.9906 11.644 94.3643 16.5035L95.4792 15.5ZM90.9804 2.00754L90.9569 3.50736C97.1194 3.60357 101.59 4.67309 106.47 9.10991L107.479 8L108.488 6.89009C102.907 1.81646 97.646 0.611423 91.0038 0.507721L90.9804 2.00754ZM90.001 2.99931L91.4995 2.93257C91.5148 3.27636 91.2356 3.51171 90.9569 3.50736L90.9804 2.00754L91.0038 0.507721C89.6207 0.486127 88.438 1.61879 88.5024 3.06606L90.001 2.99931ZM113.474 22.4994L111.974 22.5175C111.97 22.2358 112.206 21.971 112.533 21.983L112.478 23.482L112.424 24.981C113.855 25.0332 114.99 23.8675 114.974 22.4812L113.474 22.4994ZM112.927 23.5C114.158 22.6433 114.158 22.6432 114.158 22.6431C114.158 22.6431 114.158 22.643 114.158 22.6428C114.158 22.6426 114.157 22.6423 114.157 22.6419C114.157 22.641 114.156 22.6399 114.155 22.6384C114.153 22.6355 114.15 22.6313 114.146 22.6258C114.138 22.6149 114.127 22.5989 114.113 22.5781C114.084 22.5366 114.041 22.4761 113.986 22.3986C113.877 22.2436 113.719 22.0207 113.522 21.7471C113.129 21.2003 112.582 20.4486 111.962 19.6295C110.747 18.0235 109.176 16.0498 107.951 14.9043L106.927 16L105.902 17.0957C106.914 18.0418 108.343 19.8181 109.569 21.4392C110.17 22.2337 110.703 22.9648 111.086 23.4974C111.277 23.7635 111.43 23.9795 111.535 24.1285C111.588 24.203 111.628 24.2606 111.656 24.2994C111.669 24.3188 111.679 24.3334 111.686 24.343C111.689 24.3479 111.692 24.3514 111.693 24.3537C111.694 24.3549 111.695 24.3557 111.695 24.3562C111.695 24.3564 111.695 24.3566 111.696 24.3567C111.696 24.3567 111.696 24.3567 111.696 24.3567C111.696 24.3567 111.696 24.3567 112.927 23.5ZM106.927 16L107.951 14.9043C106.728 13.7605 105.006 12.575 103.648 11.7033C102.958 11.2603 102.34 10.8848 101.895 10.6198C101.672 10.4871 101.491 10.3818 101.365 10.3091C101.302 10.2727 101.253 10.2445 101.219 10.2251C101.202 10.2154 101.189 10.2079 101.18 10.2027C101.175 10.2001 101.172 10.1981 101.169 10.1966C101.168 10.1959 101.167 10.1953 101.166 10.1949C101.166 10.1947 101.166 10.1945 101.165 10.1943C101.165 10.1943 101.165 10.1942 101.165 10.1941C101.165 10.1941 101.165 10.194 100.427 11.5C99.689 12.806 99.689 12.806 99.6889 12.8059C99.6889 12.8059 99.6888 12.8059 99.6888 12.8059C99.6889 12.8059 99.6889 12.8059 99.6891 12.806C99.6893 12.8062 99.6898 12.8065 99.6906 12.8069C99.6922 12.8078 99.6947 12.8092 99.6983 12.8112C99.7053 12.8153 99.7164 12.8215 99.7312 12.83C99.7608 12.8469 99.8054 12.8725 99.8635 12.9061C99.9796 12.9733 100.15 13.0724 100.361 13.1982C100.785 13.4501 101.373 13.8075 102.028 14.228C103.36 15.0834 104.889 16.1479 105.902 17.0957L106.927 16ZM122.921 7.99258L121.912 6.88267C119.166 9.37942 117.528 11.8263 116.591 14.4396C115.664 17.0255 115.461 19.6725 115.427 22.4738L116.927 22.492L118.427 22.5101C118.46 19.8031 118.659 17.5595 119.415 15.4524C120.161 13.3726 121.487 11.3239 123.93 9.10249L122.921 7.99258ZM117.922 23.4746L117.977 24.9736C124.851 24.7225 130.064 21.9799 135.935 16.5983L134.921 15.4926L133.908 14.3868C128.366 19.4669 123.801 21.7589 117.868 21.9756L117.922 23.4746ZM134.921 15.4926L136.036 16.496C140.41 11.6365 141.717 7.13355 141.898 3.05864L140.4 2.9919L138.901 2.92516C138.749 6.34209 137.691 10.1729 133.806 14.4891L134.921 15.4926ZM139.42 2.00012L139.397 0.500305C132.755 0.604007 127.493 1.80904 121.912 6.88267L122.921 7.99258L123.93 9.10249C128.811 4.66567 133.281 3.59615 139.444 3.49994L139.42 2.00012ZM140.4 2.9919L141.898 3.05864C141.963 1.61138 140.78 0.478711 139.397 0.500305L139.42 2.00012L139.444 3.49994C139.165 3.50429 138.886 3.26894 138.901 2.92516L140.4 2.9919ZM116.927 22.492L115.427 22.4738C115.41 23.8601 116.546 25.0258 117.977 24.9736L117.922 23.4746L117.868 21.9756C118.195 21.9636 118.43 22.2283 118.427 22.5101L116.927 22.492ZM117.474 23.4926C118.705 24.3493 118.705 24.3493 118.705 24.3493C118.705 24.3493 118.705 24.3493 118.705 24.3493C118.705 24.3492 118.705 24.349 118.705 24.3488C118.706 24.3483 118.706 24.3474 118.707 24.3463C118.709 24.344 118.711 24.3404 118.715 24.3356C118.721 24.326 118.732 24.3113 118.745 24.292C118.772 24.2532 118.813 24.1955 118.865 24.1211C118.97 23.9721 119.124 23.7561 119.315 23.49C119.698 22.9574 120.23 22.2263 120.831 21.4318C122.057 19.8107 123.486 18.0344 124.498 17.0883L123.474 15.9926L122.449 14.8969C121.224 16.0424 119.653 18.0161 118.438 19.6221C117.819 20.4412 117.271 21.1929 116.878 21.7397C116.682 22.0133 116.524 22.2362 116.414 22.3911C116.36 22.4687 116.317 22.5292 116.288 22.5707C116.273 22.5915 116.262 22.6074 116.255 22.6184C116.251 22.6239 116.248 22.6281 116.246 22.631C116.245 22.6325 116.244 22.6336 116.243 22.6344C116.243 22.6348 116.243 22.6352 116.243 22.6354C116.243 22.6355 116.243 22.6357 116.243 22.6357C116.242 22.6358 116.242 22.6359 117.474 23.4926ZM123.474 15.9926L124.498 17.0883C125.512 16.1405 127.04 15.076 128.373 14.2206C129.028 13.8 129.616 13.4427 130.039 13.1908C130.251 13.065 130.421 12.9658 130.537 12.8986C130.595 12.8651 130.64 12.8395 130.669 12.8226C130.684 12.8141 130.695 12.8078 130.702 12.8038C130.706 12.8018 130.708 12.8004 130.71 12.7995C130.711 12.799 130.711 12.7987 130.712 12.7986C130.712 12.7985 130.712 12.7985 130.712 12.7985C130.712 12.7985 130.712 12.7985 130.712 12.7985C130.712 12.7985 130.712 12.7986 129.974 11.4926C129.236 10.1866 129.236 10.1867 129.236 10.1867C129.236 10.1868 129.235 10.1868 129.235 10.1869C129.235 10.1871 129.235 10.1872 129.234 10.1875C129.234 10.1879 129.233 10.1885 129.231 10.1892C129.229 10.1907 129.225 10.1927 129.221 10.1953C129.211 10.2005 129.198 10.208 129.181 10.2177C129.147 10.2371 129.098 10.2653 129.035 10.3017C128.91 10.3743 128.729 10.4797 128.506 10.6123C128.06 10.8774 127.443 11.2529 126.752 11.6959C125.394 12.5676 123.673 13.753 122.449 14.8969L123.474 15.9926ZM94 46.5V48C96.369 48 98.4092 47.5964 100.014 47.0431C101.58 46.503 102.839 45.7821 103.561 45.0607L102.5 44L101.439 42.9393C101.161 43.2179 100.37 43.747 99.036 44.2069C97.7408 44.6536 96.0309 45 94 45V46.5ZM111 39.5L111.166 40.9908L115.666 40.4908L115.5 39L115.334 37.5092L110.834 38.0092L111 39.5ZM106.5 41L107.091 42.3787L108.841 41.6287L108.25 40.25L107.659 38.8713L105.909 39.6213L106.5 41ZM108.25 40.25L108.645 41.6971L111.395 40.9471L111 39.5L110.605 38.0529L107.855 38.8029L108.25 40.25ZM137.5 46.5V45C135.469 45 133.759 44.6536 132.464 44.2069C131.13 43.747 130.339 43.2179 130.061 42.9393L129 44L127.939 45.0607C128.661 45.7821 129.92 46.503 131.486 47.0431C133.091 47.5964 135.131 48 137.5 48V46.5ZM120.5 39.5L120.666 38.0092L116.166 37.5092L116 39L115.834 40.4908L120.334 40.9908L120.5 39.5ZM125 41L125.591 39.6213L123.841 38.8713L123.25 40.25L122.659 41.6287L124.409 42.3787L125 41ZM123.25 40.25L123.645 38.8029L120.895 38.0529L120.5 39.5L120.105 40.9471L122.855 41.6971L123.25 40.25ZM102.5 44L103.4 45.2L107.4 42.2L106.5 41L105.6 39.8L101.6 42.8L102.5 44ZM129 44L129.9 42.8L125.9 39.8L125 41L124.1 42.2L128.1 45.2L129 44ZM115 31L116.471 30.7058L115.971 28.2058L114.5 28.5L113.029 28.7942L113.529 31.2942L115 31ZM114.5 28.5L115.923 28.0257L113.923 22.0257L112.5 22.5L111.077 22.9743L113.077 28.9743L114.5 28.5ZM115.769 31L117.24 31.2942L117.74 28.7942L116.269 28.5L114.798 28.2058L114.298 30.7058L115.769 31ZM116.269 28.5L117.692 28.9743L119.692 22.9743L118.269 22.5L116.846 22.0256L114.846 28.0256L116.269 28.5ZM115.5 35L116.997 35.1008L117.266 31.1007L115.769 31L114.273 30.8992L114.003 34.8992L115.5 35ZM115.5 39L117 39L117 35L115.5 35L114 35L114 39L115.5 39ZM115.5 35L116.988 34.8139L116.488 30.8139L115 31L113.512 31.1861L114.012 35.1861L115.5 35Z" fill="black"/>
</svg>
